<svg width="996" height="277" viewBox="0 0 996 277" fill="none" xmlns="http://www.w3.org/2000/svg">
<path fill-rule="evenodd" clip-rule="evenodd" d="M280.88 73.5C275.53 46.4202 251.65 26 223 26C190.415 26 164 52.4152 164 85C164 113.65 184.42 137.53 211.5 142.88V169.229C169.995 163.615 138 128.044 138 85C138 38.0558 176.056 0 223 0C266.044 0 301.615 31.9949 307.229 73.5H280.88ZM234.5 142.88C257.86 138.265 276.265 119.86 280.88 96.5H307.229C302.124 134.244 272.244 164.124 234.5 169.229V142.88Z" fill="#86C84D"/>
<path d="M444.722 234.019C444.722 235.224 444.646 236.478 444.496 237.783H415.369C415.569 240.392 416.397 242.399 417.852 243.804C419.358 245.158 421.189 245.836 423.347 245.836C426.558 245.836 428.791 244.481 430.045 241.772H443.743C443.041 244.531 441.761 247.015 439.905 249.223C438.098 251.431 435.815 253.162 433.056 254.416C430.296 255.67 427.21 256.298 423.798 256.298C419.684 256.298 416.021 255.42 412.81 253.663C409.598 251.907 407.09 249.398 405.283 246.137C403.477 242.875 402.574 239.062 402.574 234.697C402.574 230.331 403.452 226.518 405.208 223.257C407.014 219.995 409.523 217.486 412.734 215.73C415.946 213.974 419.634 213.096 423.798 213.096C427.863 213.096 431.475 213.949 434.636 215.655C437.797 217.361 440.256 219.794 442.012 222.956C443.818 226.117 444.722 229.805 444.722 234.019ZM431.55 230.633C431.55 228.425 430.798 226.669 429.293 225.364C427.787 224.059 425.906 223.407 423.648 223.407C421.49 223.407 419.659 224.034 418.153 225.289C416.698 226.543 415.795 228.324 415.444 230.633H431.55Z" fill="white"/>
<path d="M370.006 213.096C372.967 213.096 375.551 213.698 377.758 214.902C380.016 216.107 381.747 217.687 382.952 219.644V213.698H395.822V255.62C395.822 259.484 395.044 262.971 393.489 266.082C391.983 269.243 389.65 271.752 386.489 273.608C383.378 275.465 379.489 276.393 374.823 276.393C368.601 276.393 363.559 274.913 359.695 271.953C355.831 269.042 353.624 265.078 353.072 260.061H365.791C366.193 261.666 367.146 262.921 368.651 263.824C370.157 264.777 372.013 265.254 374.221 265.254C376.88 265.254 378.988 264.476 380.543 262.921C382.149 261.416 382.952 258.982 382.952 255.62V249.674C381.697 251.631 379.966 253.237 377.758 254.491C375.551 255.695 372.967 256.298 370.006 256.298C366.544 256.298 363.408 255.42 360.598 253.663C357.788 251.857 355.555 249.323 353.9 246.062C352.294 242.75 351.491 238.937 351.491 234.622C351.491 230.306 352.294 226.518 353.9 223.257C355.555 219.995 357.788 217.486 360.598 215.73C363.408 213.974 366.544 213.096 370.006 213.096ZM382.952 234.697C382.952 231.486 382.048 228.952 380.242 227.095C378.486 225.239 376.328 224.31 373.769 224.31C371.21 224.31 369.028 225.239 367.221 227.095C365.465 228.901 364.587 231.41 364.587 234.622C364.587 237.833 365.465 240.392 367.221 242.298C369.028 244.155 371.21 245.083 373.769 245.083C376.328 245.083 378.486 244.155 380.242 242.298C382.048 240.442 382.952 237.908 382.952 234.697Z" fill="white"/>
<path d="M328.925 213.246C333.842 213.246 337.756 214.852 340.666 218.063C343.626 221.224 345.107 225.59 345.107 231.159V255.695H332.312V232.89C332.312 230.081 331.584 227.898 330.129 226.342C328.674 224.787 326.717 224.009 324.259 224.009C321.8 224.009 319.843 224.787 318.388 226.342C316.933 227.898 316.205 230.081 316.205 232.89V255.695H303.335V213.698H316.205V219.268C317.51 217.411 319.266 215.956 321.474 214.902C323.682 213.798 326.165 213.246 328.925 213.246Z" fill="white"/>
<path d="M249.693 234.622C249.693 230.306 250.496 226.518 252.102 223.257C253.758 219.995 255.991 217.486 258.8 215.73C261.61 213.974 264.746 213.096 268.208 213.096C271.169 213.096 273.753 213.698 275.961 214.902C278.219 216.107 279.95 217.687 281.154 219.644V213.698H294.024V255.695H281.154V249.75C279.9 251.706 278.143 253.287 275.885 254.491C273.678 255.695 271.094 256.298 268.133 256.298C264.721 256.298 261.61 255.42 258.8 253.663C255.991 251.857 253.758 249.323 252.102 246.062C250.496 242.75 249.693 238.937 249.693 234.622ZM281.154 234.697C281.154 231.486 280.251 228.952 278.444 227.095C276.688 225.239 274.531 224.31 271.972 224.31C269.413 224.31 267.23 225.239 265.424 227.095C263.668 228.901 262.789 231.41 262.789 234.622C262.789 237.833 263.668 240.392 265.424 242.298C267.23 244.155 269.413 245.083 271.972 245.083C274.531 245.083 276.688 244.155 278.444 242.298C280.251 240.442 281.154 237.908 281.154 234.697Z" fill="white"/>
<path d="M227.353 213.246C232.17 213.246 236.033 214.852 238.944 218.063C241.854 221.224 243.309 225.59 243.309 231.159V255.695H230.514V232.89C230.514 230.081 229.787 227.898 228.331 226.342C226.876 224.787 224.919 224.009 222.461 224.009C220.002 224.009 218.045 224.787 216.59 226.342C215.135 227.898 214.408 230.081 214.408 232.89V255.695H201.537V200H214.408V219.343C215.712 217.486 217.493 216.006 219.751 214.902C222.009 213.798 224.543 213.246 227.353 213.246Z" fill="white"/>
<path d="M142.025 229.202C142.025 223.984 143.154 219.343 145.412 215.279C147.669 211.164 150.805 207.978 154.82 205.72C158.884 203.412 163.475 202.258 168.593 202.258C174.865 202.258 180.234 203.914 184.699 207.225C189.165 210.537 192.151 215.053 193.656 220.773H179.506C178.452 218.565 176.947 216.884 174.99 215.73C173.084 214.576 170.901 213.999 168.442 213.999C164.478 213.999 161.267 215.379 158.809 218.139C156.35 220.898 155.121 224.586 155.121 229.202C155.121 233.819 156.35 237.507 158.809 240.266C161.267 243.026 164.478 244.406 168.442 244.406C170.901 244.406 173.084 243.829 174.99 242.675C176.947 241.521 178.452 239.84 179.506 237.632H193.656C192.151 243.352 189.165 247.868 184.699 251.18C180.234 254.441 174.865 256.072 168.593 256.072C163.475 256.072 158.884 254.943 154.82 252.685C150.805 250.377 147.669 247.191 145.412 243.126C143.154 239.062 142.025 234.421 142.025 229.202Z" fill="white"/>
<path d="M80.1287 234.697C80.1287 230.331 81.0068 226.518 82.7629 223.257C84.5693 219.995 87.053 217.486 90.2141 215.73C93.4253 213.974 97.0882 213.096 101.203 213.096C106.471 213.096 110.862 214.476 114.374 217.235C117.936 219.995 120.27 223.884 121.373 228.901H107.675C106.521 225.69 104.288 224.085 100.977 224.085C98.6186 224.085 96.737 225.013 95.332 226.869C93.9271 228.676 93.2246 231.285 93.2246 234.697C93.2246 238.109 93.9271 240.743 95.332 242.6C96.737 244.406 98.6186 245.309 100.977 245.309C104.288 245.309 106.521 243.703 107.675 240.492H121.373C120.27 245.409 117.936 249.273 114.374 252.083C110.811 254.893 106.421 256.298 101.203 256.298C97.0882 256.298 93.4253 255.42 90.2141 253.663C87.053 251.907 84.5693 249.398 82.7629 246.137C81.0068 242.875 80.1287 239.062 80.1287 234.697Z" fill="white"/>
<path d="M57.804 256.298C54.1412 256.298 50.8797 255.67 48.0197 254.416C45.1597 253.162 42.9017 251.456 41.2459 249.298C39.5901 247.09 38.6619 244.632 38.4612 241.922H51.1808C51.3313 243.377 52.0087 244.556 53.2129 245.46C54.4171 246.363 55.8973 246.814 57.6535 246.814C59.2591 246.814 60.4885 246.513 61.3415 245.911C62.2446 245.259 62.6962 244.431 62.6962 243.427C62.6962 242.223 62.069 241.345 60.8146 240.793C59.5602 240.191 57.5281 239.539 54.7182 238.836C51.7076 238.134 49.1988 237.406 47.1918 236.654C45.1847 235.851 43.4537 234.622 41.9986 232.966C40.5435 231.26 39.8159 228.977 39.8159 226.117C39.8159 223.708 40.4682 221.526 41.7728 219.569C43.1275 217.562 45.0844 215.981 47.6434 214.827C50.2525 213.673 53.3384 213.096 56.9009 213.096C62.1694 213.096 66.3089 214.401 69.3195 217.01C72.3802 219.619 74.1364 223.081 74.5879 227.396H62.6962C62.4955 225.941 61.8432 224.787 60.7393 223.934C59.6856 223.081 58.2807 222.655 56.5245 222.655C55.0193 222.655 53.8652 222.956 53.0624 223.558C52.2596 224.11 51.8582 224.887 51.8582 225.891C51.8582 227.095 52.4854 227.998 53.7398 228.6C55.0443 229.203 57.0514 229.805 59.7609 230.407C62.8718 231.21 65.4057 232.012 67.3626 232.815C69.3195 233.568 71.0254 234.822 72.4805 236.578C73.9858 238.284 74.7636 240.592 74.8137 243.503C74.8137 245.961 74.1113 248.169 72.7063 250.126C71.3516 252.033 69.3696 253.538 66.7605 254.642C64.2015 255.746 61.216 256.298 57.804 256.298Z" fill="white"/>
<path d="M12.8702 213.171V223.859H30.1057V233.794H12.8702V245.384H32.3636V255.695H0V202.86H32.3636V213.171H12.8702Z" fill="white"/>
<path d="M513.04 131.24C512.112 129.288 510.768 127.784 509.008 126.728C507.248 125.64 505.2 125.096 502.864 125.096C500.528 125.096 498.416 125.64 496.528 126.728C494.672 127.784 493.2 129.32 492.112 131.336C491.056 133.32 490.528 135.624 490.528 138.248C490.528 140.872 491.056 143.176 492.112 145.16C493.2 147.144 494.672 148.68 496.528 149.768C498.416 150.824 500.528 151.352 502.864 151.352C506.128 151.352 508.816 150.376 510.928 148.424C513.04 146.472 514.272 143.832 514.624 140.504H501.28V136.952H519.28V140.312C519.024 143.064 518.16 145.592 516.688 147.896C515.216 150.168 513.28 151.976 510.88 153.32C508.48 154.632 505.808 155.288 502.864 155.288C499.76 155.288 496.928 154.568 494.368 153.128C491.808 151.656 489.776 149.624 488.272 147.032C486.8 144.44 486.064 141.512 486.064 138.248C486.064 134.984 486.8 132.056 488.272 129.464C489.776 126.84 491.808 124.808 494.368 123.368C496.928 121.896 499.76 121.16 502.864 121.16C506.416 121.16 509.552 122.04 512.272 123.8C515.024 125.56 517.024 128.04 518.272 131.24H513.04ZM527.311 124.424C526.479 124.424 525.775 124.136 525.199 123.56C524.623 122.984 524.335 122.28 524.335 121.448C524.335 120.616 524.623 119.912 525.199 119.336C525.775 118.76 526.479 118.472 527.311 118.472C528.111 118.472 528.783 118.76 529.327 119.336C529.903 119.912 530.191 120.616 530.191 121.448C530.191 122.28 529.903 122.984 529.327 123.56C528.783 124.136 528.111 124.424 527.311 124.424ZM529.423 128.696V155H525.055V128.696H529.423ZM546.66 150.968L554.82 128.696H559.476L549.156 155H544.068L533.748 128.696H538.452L546.66 150.968ZM587.774 140.84C587.774 141.672 587.726 142.552 587.63 143.48H566.606C566.766 146.072 567.646 148.104 569.246 149.576C570.878 151.016 572.846 151.736 575.15 151.736C577.038 151.736 578.606 151.304 579.854 150.44C581.134 149.544 582.03 148.36 582.542 146.888H587.246C586.542 149.416 585.134 151.48 583.022 153.08C580.91 154.648 578.286 155.432 575.15 155.432C572.654 155.432 570.414 154.872 568.43 153.752C566.478 152.632 564.942 151.048 563.822 149C562.702 146.92 562.142 144.52 562.142 141.8C562.142 139.08 562.686 136.696 563.774 134.648C564.862 132.6 566.382 131.032 568.334 129.944C570.318 128.824 572.59 128.264 575.15 128.264C577.646 128.264 579.854 128.808 581.774 129.896C583.694 130.984 585.166 132.488 586.19 134.408C587.246 136.296 587.774 138.44 587.774 140.84ZM583.262 139.928C583.262 138.264 582.894 136.84 582.158 135.656C581.422 134.44 580.414 133.528 579.134 132.92C577.886 132.28 576.494 131.96 574.958 131.96C572.75 131.96 570.862 132.664 569.294 134.072C567.758 135.48 566.878 137.432 566.654 139.928H583.262ZM610.705 125.096V136.28H622.897V139.88H610.705V151.4H624.337V155H606.337V121.496H624.337V125.096H610.705ZM640.258 155.432C638.242 155.432 636.434 155.096 634.834 154.424C633.234 153.72 631.97 152.76 631.042 151.544C630.114 150.296 629.602 148.872 629.506 147.272H634.018C634.146 148.584 634.754 149.656 635.842 150.488C636.962 151.32 638.418 151.736 640.21 151.736C641.874 151.736 643.186 151.368 644.146 150.632C645.106 149.896 645.586 148.968 645.586 147.848C645.586 146.696 645.074 145.848 644.05 145.304C643.026 144.728 641.442 144.168 639.298 143.624C637.346 143.112 635.746 142.6 634.498 142.088C633.282 141.544 632.226 140.76 631.33 139.736C630.466 138.68 630.034 137.304 630.034 135.608C630.034 134.264 630.434 133.032 631.234 131.912C632.034 130.792 633.17 129.912 634.642 129.272C636.114 128.6 637.794 128.264 639.682 128.264C642.594 128.264 644.946 129 646.738 130.472C648.53 131.944 649.49 133.96 649.618 136.52H645.25C645.154 135.144 644.594 134.04 643.57 133.208C642.578 132.376 641.234 131.96 639.538 131.96C637.97 131.96 636.722 132.296 635.794 132.968C634.866 133.64 634.402 134.52 634.402 135.608C634.402 136.472 634.674 137.192 635.218 137.768C635.794 138.312 636.498 138.76 637.33 139.112C638.194 139.432 639.378 139.8 640.882 140.216C642.77 140.728 644.306 141.24 645.49 141.752C646.674 142.232 647.682 142.968 648.514 143.96C649.378 144.952 649.826 146.248 649.858 147.848C649.858 149.288 649.458 150.584 648.658 151.736C647.858 152.888 646.722 153.8 645.25 154.472C643.81 155.112 642.146 155.432 640.258 155.432ZM654.392 141.8C654.392 139.08 654.936 136.712 656.024 134.696C657.112 132.648 658.616 131.064 660.536 129.944C662.488 128.824 664.712 128.264 667.208 128.264C670.44 128.264 673.096 129.048 675.176 130.616C677.288 132.184 678.68 134.36 679.352 137.144H674.648C674.2 135.544 673.32 134.28 672.008 133.352C670.728 132.424 669.128 131.96 667.208 131.96C664.712 131.96 662.696 132.824 661.16 134.552C659.624 136.248 658.856 138.664 658.856 141.8C658.856 144.968 659.624 147.416 661.16 149.144C662.696 150.872 664.712 151.736 667.208 151.736C669.128 151.736 670.728 151.288 672.008 150.392C673.288 149.496 674.168 148.216 674.648 146.552H679.352C678.648 149.24 677.24 151.4 675.128 153.032C673.016 154.632 670.376 155.432 667.208 155.432C664.712 155.432 662.488 154.872 660.536 153.752C658.616 152.632 657.112 151.048 656.024 149C654.936 146.952 654.392 144.552 654.392 141.8ZM717.753 147.56H703.161L700.473 155H695.865L707.961 121.736H713.001L725.049 155H720.441L717.753 147.56ZM716.505 144.008L710.457 127.112L704.409 144.008H716.505ZM743.137 128.216C746.337 128.216 748.929 129.192 750.913 131.144C752.897 133.064 753.889 135.848 753.889 139.496V155H749.569V140.12C749.569 137.496 748.913 135.496 747.601 134.12C746.289 132.712 744.497 132.008 742.225 132.008C739.921 132.008 738.081 132.728 736.705 134.168C735.361 135.608 734.689 137.704 734.689 140.456V155H730.321V128.696H734.689V132.44C735.553 131.096 736.721 130.056 738.193 129.32C739.697 128.584 741.345 128.216 743.137 128.216ZM759.392 141.752C759.392 139.064 759.936 136.712 761.024 134.696C762.112 132.648 763.6 131.064 765.488 129.944C767.408 128.824 769.552 128.264 771.92 128.264C773.968 128.264 775.872 128.744 777.632 129.704C779.392 130.632 780.736 131.864 781.664 133.4V119.48H786.08V155H781.664V150.056C780.8 151.624 779.52 152.92 777.824 153.944C776.128 154.936 774.144 155.432 771.872 155.432C769.536 155.432 767.408 154.856 765.488 153.704C763.6 152.552 762.112 150.936 761.024 148.856C759.936 146.776 759.392 144.408 759.392 141.752ZM781.664 141.8C781.664 139.816 781.264 138.088 780.464 136.616C779.664 135.144 778.576 134.024 777.2 133.256C775.856 132.456 774.368 132.056 772.736 132.056C771.104 132.056 769.616 132.44 768.272 133.208C766.928 133.976 765.856 135.096 765.056 136.568C764.256 138.04 763.856 139.768 763.856 141.752C763.856 143.768 764.256 145.528 765.056 147.032C765.856 148.504 766.928 149.64 768.272 150.44C769.616 151.208 771.104 151.592 772.736 151.592C774.368 151.592 775.856 151.208 777.2 150.44C778.576 149.64 779.664 148.504 780.464 147.032C781.264 145.528 781.664 143.784 781.664 141.8ZM804.627 138.248C804.627 134.984 805.363 132.056 806.835 129.464C808.307 126.84 810.307 124.792 812.835 123.32C815.395 121.848 818.227 121.112 821.331 121.112C824.979 121.112 828.163 121.992 830.883 123.752C833.603 125.512 835.587 128.008 836.835 131.24H831.603C830.675 129.224 829.331 127.672 827.571 126.584C825.843 125.496 823.763 124.952 821.331 124.952C818.995 124.952 816.899 125.496 815.043 126.584C813.187 127.672 811.731 129.224 810.675 131.24C809.619 133.224 809.091 135.56 809.091 138.248C809.091 140.904 809.619 143.24 810.675 145.256C811.731 147.24 813.187 148.776 815.043 149.864C816.899 150.952 818.995 151.496 821.331 151.496C823.763 151.496 825.843 150.968 827.571 149.912C829.331 148.824 830.675 147.272 831.603 145.256H836.835C835.587 148.456 833.603 150.936 830.883 152.696C828.163 154.424 824.979 155.288 821.331 155.288C818.227 155.288 815.395 154.568 812.835 153.128C810.307 151.656 808.307 149.624 806.835 147.032C805.363 144.44 804.627 141.512 804.627 138.248ZM856.393 128.216C858.377 128.216 860.169 128.648 861.769 129.512C863.369 130.344 864.617 131.608 865.513 133.304C866.441 135 866.905 137.064 866.905 139.496V155H862.585V140.12C862.585 137.496 861.929 135.496 860.617 134.12C859.305 132.712 857.513 132.008 855.241 132.008C852.937 132.008 851.097 132.728 849.721 134.168C848.377 135.608 847.705 137.704 847.705 140.456V155H843.337V119.48H847.705V132.44C848.569 131.096 849.753 130.056 851.257 129.32C852.793 128.584 854.505 128.216 856.393 128.216ZM872.408 141.752C872.408 139.064 872.952 136.712 874.04 134.696C875.128 132.648 876.616 131.064 878.504 129.944C880.424 128.824 882.552 128.264 884.888 128.264C887.192 128.264 889.192 128.76 890.888 129.752C892.584 130.744 893.848 131.992 894.68 133.496V128.696H899.096V155H894.68V150.104C893.816 151.64 892.52 152.92 890.792 153.944C889.096 154.936 887.112 155.432 884.84 155.432C882.504 155.432 880.392 154.856 878.504 153.704C876.616 152.552 875.128 150.936 874.04 148.856C872.952 146.776 872.408 144.408 872.408 141.752ZM894.68 141.8C894.68 139.816 894.28 138.088 893.48 136.616C892.68 135.144 891.592 134.024 890.216 133.256C888.872 132.456 887.384 132.056 885.752 132.056C884.12 132.056 882.632 132.44 881.288 133.208C879.944 133.976 878.872 135.096 878.072 136.568C877.272 138.04 876.872 139.768 876.872 141.752C876.872 143.768 877.272 145.528 878.072 147.032C878.872 148.504 879.944 149.64 881.288 150.44C882.632 151.208 884.12 151.592 885.752 151.592C887.384 151.592 888.872 151.208 890.216 150.44C891.592 149.64 892.68 148.504 893.48 147.032C894.28 145.528 894.68 143.784 894.68 141.8ZM919.293 128.216C922.493 128.216 925.085 129.192 927.069 131.144C929.053 133.064 930.045 135.848 930.045 139.496V155H925.725V140.12C925.725 137.496 925.069 135.496 923.757 134.12C922.445 132.712 920.653 132.008 918.381 132.008C916.077 132.008 914.237 132.728 912.861 134.168C911.517 135.608 910.845 137.704 910.845 140.456V155H906.477V128.696H910.845V132.44C911.709 131.096 912.877 130.056 914.349 129.32C915.853 128.584 917.501 128.216 919.293 128.216ZM948.028 128.264C950.3 128.264 952.284 128.76 953.98 129.752C955.708 130.744 956.988 131.992 957.82 133.496V128.696H962.236V155.576C962.236 157.976 961.724 160.104 960.7 161.96C959.676 163.848 958.204 165.32 956.284 166.376C954.396 167.432 952.188 167.96 949.66 167.96C946.204 167.96 943.324 167.144 941.02 165.512C938.716 163.88 937.356 161.656 936.94 158.84H941.26C941.74 160.44 942.732 161.72 944.236 162.68C945.74 163.672 947.548 164.168 949.66 164.168C952.06 164.168 954.012 163.416 955.516 161.912C957.052 160.408 957.82 158.296 957.82 155.576V150.056C956.956 151.592 955.676 152.872 953.98 153.896C952.284 154.92 950.3 155.432 948.028 155.432C945.692 155.432 943.564 154.856 941.644 153.704C939.756 152.552 938.268 150.936 937.18 148.856C936.092 146.776 935.548 144.408 935.548 141.752C935.548 139.064 936.092 136.712 937.18 134.696C938.268 132.648 939.756 131.064 941.644 129.944C943.564 128.824 945.692 128.264 948.028 128.264ZM957.82 141.8C957.82 139.816 957.42 138.088 956.62 136.616C955.82 135.144 954.732 134.024 953.356 133.256C952.012 132.456 950.524 132.056 948.892 132.056C947.26 132.056 945.772 132.44 944.428 133.208C943.084 133.976 942.012 135.096 941.212 136.568C940.412 138.04 940.012 139.768 940.012 141.752C940.012 143.768 940.412 145.528 941.212 147.032C942.012 148.504 943.084 149.64 944.428 150.44C945.772 151.208 947.26 151.592 948.892 151.592C950.524 151.592 952.012 151.208 953.356 150.44C954.732 149.64 955.82 148.504 956.62 147.032C957.42 145.528 957.82 143.784 957.82 141.8ZM993.618 140.84C993.618 141.672 993.57 142.552 993.474 143.48H972.45C972.61 146.072 973.49 148.104 975.09 149.576C976.722 151.016 978.69 151.736 980.994 151.736C982.882 151.736 984.45 151.304 985.698 150.44C986.978 149.544 987.874 148.36 988.386 146.888H993.09C992.386 149.416 990.978 151.48 988.866 153.08C986.754 154.648 984.13 155.432 980.994 155.432C978.498 155.432 976.258 154.872 974.274 153.752C972.322 152.632 970.786 151.048 969.666 149C968.546 146.92 967.986 144.52 967.986 141.8C967.986 139.08 968.53 136.696 969.618 134.648C970.706 132.6 972.226 131.032 974.178 129.944C976.162 128.824 978.434 128.264 980.994 128.264C983.49 128.264 985.698 128.808 987.618 129.896C989.538 130.984 991.01 132.488 992.034 134.408C993.09 136.296 993.618 138.44 993.618 140.84ZM989.106 139.928C989.106 138.264 988.738 136.84 988.002 135.656C987.266 134.44 986.258 133.528 984.978 132.92C983.73 132.28 982.338 131.96 980.802 131.96C978.594 131.96 976.706 132.664 975.138 134.072C973.602 135.48 972.722 137.432 972.498 139.928H989.106Z" fill="white"/>
</svg>
