<svg width="445" height="277" viewBox="0 0 445 277" fill="none" xmlns="http://www.w3.org/2000/svg">
<path fill-rule="evenodd" clip-rule="evenodd" d="M280.88 73.5C275.53 46.4202 251.65 26 223 26C190.415 26 164 52.4152 164 85C164 113.65 184.42 137.53 211.5 142.88V169.229C169.995 163.615 138 128.044 138 85C138 38.0558 176.056 0 223 0C266.044 0 301.615 31.9949 307.229 73.5H280.88ZM234.5 142.88C257.86 138.265 276.265 119.86 280.88 96.5H307.229C302.124 134.244 272.244 164.124 234.5 169.229V142.88Z" fill="#86C84D"/>
<path d="M444.722 234.019C444.722 235.224 444.646 236.478 444.496 237.783H415.369C415.569 240.392 416.397 242.399 417.852 243.804C419.358 245.158 421.189 245.836 423.347 245.836C426.558 245.836 428.791 244.481 430.045 241.772H443.743C443.041 244.531 441.761 247.015 439.905 249.223C438.098 251.431 435.815 253.162 433.056 254.416C430.296 255.67 427.21 256.298 423.798 256.298C419.684 256.298 416.021 255.42 412.81 253.663C409.598 251.907 407.09 249.398 405.283 246.137C403.477 242.875 402.574 239.062 402.574 234.697C402.574 230.331 403.452 226.518 405.208 223.257C407.014 219.995 409.523 217.486 412.734 215.73C415.946 213.974 419.634 213.096 423.798 213.096C427.863 213.096 431.475 213.949 434.636 215.655C437.797 217.361 440.256 219.794 442.012 222.956C443.818 226.117 444.722 229.805 444.722 234.019ZM431.55 230.633C431.55 228.425 430.798 226.669 429.293 225.364C427.787 224.059 425.906 223.407 423.648 223.407C421.49 223.407 419.659 224.034 418.153 225.289C416.698 226.543 415.795 228.324 415.444 230.633H431.55Z" fill="white"/>
<path d="M370.006 213.096C372.967 213.096 375.551 213.698 377.758 214.902C380.016 216.107 381.747 217.687 382.952 219.644V213.698H395.822V255.62C395.822 259.484 395.044 262.971 393.489 266.082C391.983 269.243 389.65 271.752 386.489 273.608C383.378 275.465 379.489 276.393 374.823 276.393C368.601 276.393 363.559 274.913 359.695 271.953C355.831 269.042 353.624 265.078 353.072 260.061H365.791C366.193 261.666 367.146 262.921 368.651 263.824C370.157 264.777 372.013 265.254 374.221 265.254C376.88 265.254 378.988 264.476 380.543 262.921C382.149 261.416 382.952 258.982 382.952 255.62V249.674C381.697 251.631 379.966 253.237 377.758 254.491C375.551 255.695 372.967 256.298 370.006 256.298C366.544 256.298 363.408 255.42 360.598 253.663C357.788 251.857 355.555 249.323 353.9 246.062C352.294 242.75 351.491 238.937 351.491 234.622C351.491 230.306 352.294 226.518 353.9 223.257C355.555 219.995 357.788 217.486 360.598 215.73C363.408 213.974 366.544 213.096 370.006 213.096ZM382.952 234.697C382.952 231.486 382.048 228.952 380.242 227.095C378.486 225.239 376.328 224.31 373.769 224.31C371.21 224.31 369.028 225.239 367.221 227.095C365.465 228.901 364.587 231.41 364.587 234.622C364.587 237.833 365.465 240.392 367.221 242.298C369.028 244.155 371.21 245.083 373.769 245.083C376.328 245.083 378.486 244.155 380.242 242.298C382.048 240.442 382.952 237.908 382.952 234.697Z" fill="white"/>
<path d="M328.925 213.246C333.842 213.246 337.756 214.852 340.666 218.063C343.626 221.224 345.107 225.59 345.107 231.159V255.695H332.312V232.89C332.312 230.081 331.584 227.898 330.129 226.342C328.674 224.787 326.717 224.009 324.259 224.009C321.8 224.009 319.843 224.787 318.388 226.342C316.933 227.898 316.205 230.081 316.205 232.89V255.695H303.335V213.698H316.205V219.268C317.51 217.411 319.266 215.956 321.474 214.902C323.682 213.798 326.165 213.246 328.925 213.246Z" fill="white"/>
<path d="M249.693 234.622C249.693 230.306 250.496 226.518 252.102 223.257C253.758 219.995 255.991 217.486 258.8 215.73C261.61 213.974 264.746 213.096 268.208 213.096C271.169 213.096 273.753 213.698 275.961 214.902C278.219 216.107 279.95 217.687 281.154 219.644V213.698H294.024V255.695H281.154V249.75C279.9 251.706 278.143 253.287 275.885 254.491C273.678 255.695 271.094 256.298 268.133 256.298C264.721 256.298 261.61 255.42 258.8 253.663C255.991 251.857 253.758 249.323 252.102 246.062C250.496 242.75 249.693 238.937 249.693 234.622ZM281.154 234.697C281.154 231.486 280.251 228.952 278.444 227.095C276.688 225.239 274.531 224.31 271.972 224.31C269.413 224.31 267.23 225.239 265.424 227.095C263.668 228.901 262.789 231.41 262.789 234.622C262.789 237.833 263.668 240.392 265.424 242.298C267.23 244.155 269.413 245.083 271.972 245.083C274.531 245.083 276.688 244.155 278.444 242.298C280.251 240.442 281.154 237.908 281.154 234.697Z" fill="white"/>
<path d="M227.353 213.246C232.17 213.246 236.033 214.852 238.944 218.063C241.854 221.224 243.309 225.59 243.309 231.159V255.695H230.514V232.89C230.514 230.081 229.787 227.898 228.331 226.342C226.876 224.787 224.919 224.009 222.461 224.009C220.002 224.009 218.045 224.787 216.59 226.342C215.135 227.898 214.408 230.081 214.408 232.89V255.695H201.537V200H214.408V219.343C215.712 217.486 217.493 216.006 219.751 214.902C222.009 213.798 224.543 213.246 227.353 213.246Z" fill="white"/>
<path d="M142.025 229.202C142.025 223.984 143.154 219.343 145.412 215.279C147.669 211.164 150.805 207.978 154.82 205.72C158.884 203.412 163.475 202.258 168.593 202.258C174.865 202.258 180.234 203.914 184.699 207.225C189.165 210.537 192.151 215.053 193.656 220.773H179.506C178.452 218.565 176.947 216.884 174.99 215.73C173.084 214.576 170.901 213.999 168.442 213.999C164.478 213.999 161.267 215.379 158.809 218.139C156.35 220.898 155.121 224.586 155.121 229.202C155.121 233.819 156.35 237.507 158.809 240.266C161.267 243.026 164.478 244.406 168.442 244.406C170.901 244.406 173.084 243.829 174.99 242.675C176.947 241.521 178.452 239.84 179.506 237.632H193.656C192.151 243.352 189.165 247.868 184.699 251.18C180.234 254.441 174.865 256.072 168.593 256.072C163.475 256.072 158.884 254.943 154.82 252.685C150.805 250.377 147.669 247.191 145.412 243.126C143.154 239.062 142.025 234.421 142.025 229.202Z" fill="white"/>
<path d="M80.1287 234.697C80.1287 230.331 81.0068 226.518 82.7629 223.257C84.5693 219.995 87.053 217.486 90.2141 215.73C93.4253 213.974 97.0882 213.096 101.203 213.096C106.471 213.096 110.862 214.476 114.374 217.235C117.936 219.995 120.27 223.884 121.373 228.901H107.675C106.521 225.69 104.288 224.085 100.977 224.085C98.6186 224.085 96.737 225.013 95.332 226.869C93.9271 228.676 93.2246 231.285 93.2246 234.697C93.2246 238.109 93.9271 240.743 95.332 242.6C96.737 244.406 98.6186 245.309 100.977 245.309C104.288 245.309 106.521 243.703 107.675 240.492H121.373C120.27 245.409 117.936 249.273 114.374 252.083C110.811 254.893 106.421 256.298 101.203 256.298C97.0882 256.298 93.4253 255.42 90.2141 253.663C87.053 251.907 84.5693 249.398 82.7629 246.137C81.0068 242.875 80.1287 239.062 80.1287 234.697Z" fill="white"/>
<path d="M57.804 256.298C54.1412 256.298 50.8797 255.67 48.0197 254.416C45.1597 253.162 42.9017 251.456 41.2459 249.298C39.5901 247.09 38.6619 244.632 38.4612 241.922H51.1808C51.3313 243.377 52.0087 244.556 53.2129 245.46C54.4171 246.363 55.8973 246.814 57.6535 246.814C59.2591 246.814 60.4885 246.513 61.3415 245.911C62.2446 245.259 62.6962 244.431 62.6962 243.427C62.6962 242.223 62.069 241.345 60.8146 240.793C59.5602 240.191 57.5281 239.539 54.7182 238.836C51.7076 238.134 49.1988 237.406 47.1918 236.654C45.1847 235.851 43.4537 234.622 41.9986 232.966C40.5435 231.26 39.8159 228.977 39.8159 226.117C39.8159 223.708 40.4682 221.526 41.7728 219.569C43.1275 217.562 45.0844 215.981 47.6434 214.827C50.2525 213.673 53.3384 213.096 56.9009 213.096C62.1694 213.096 66.3089 214.401 69.3195 217.01C72.3802 219.619 74.1364 223.081 74.5879 227.396H62.6962C62.4955 225.941 61.8432 224.787 60.7393 223.934C59.6856 223.081 58.2807 222.655 56.5245 222.655C55.0193 222.655 53.8652 222.956 53.0624 223.558C52.2596 224.11 51.8582 224.887 51.8582 225.891C51.8582 227.095 52.4854 227.998 53.7398 228.6C55.0443 229.203 57.0514 229.805 59.7609 230.407C62.8718 231.21 65.4057 232.012 67.3626 232.815C69.3195 233.568 71.0254 234.822 72.4805 236.578C73.9858 238.284 74.7636 240.592 74.8137 243.503C74.8137 245.961 74.1113 248.169 72.7063 250.126C71.3516 252.033 69.3696 253.538 66.7605 254.642C64.2015 255.746 61.216 256.298 57.804 256.298Z" fill="white"/>
<path d="M12.8702 213.171V223.859H30.1057V233.794H12.8702V245.384H32.3636V255.695H0V202.86H32.3636V213.171H12.8702Z" fill="white"/>
</svg>
