<?xml version="1.0" encoding="utf-8"?>
<!-- Generator: Adobe Illustrator 25.0.1, SVG Export Plug-In . SVG Version: 6.00 Build 0)  -->
<svg version="1.1" id="Layer_1" xmlns="http://www.w3.org/2000/svg" xmlns:xlink="http://www.w3.org/1999/xlink" x="0px" y="0px"
	 viewBox="0 0 204.7 58.8" style="enable-background:new 0 0 204.7 58.8;" xml:space="preserve">
<style type="text/css">
	.st0{fill-rule:evenodd;clip-rule:evenodd;fill:#C4161C;}
	.st1{fill-rule:evenodd;clip-rule:evenodd;fill:#FFFFFF;}
	.st2{fill:none;stroke:#000000;stroke-width:4.0929;stroke-linecap:round;stroke-miterlimit:22.9256;}
</style>
<g>
	<path class="st0" d="M31.7,2.7C10.5-1.3-0.7,7.7,0,24.6c1.6,13.1,11.2,24.5,31.2,33.8c21.6-4.8,35.9-14,37.4-31.4
		C69.8,11.5,56.9-7,31.7,2.7"/>
	<path class="st1" d="M56.3,6.5C39.4-2.9,20.1,9.2,19.8,25.9c1.4,3.8,2.7,7,4.1,10.9c5.3-2.6,10.6-4.5,16-7
		c-5.1-2.3-1.5-10.3,3.4-9.1c6.7,1.1,5.3,9.9,0.6,10.1c-6.4,2.9-12.8,5.9-19.2,8.8c2.4,5.2,4.8,10.5,7.2,15.7
		c19.8-4.1,31.2-15.1,33-24.6C66.5,20,63.7,11.9,56.3,6.5"/>
	<path class="st2" d="M202.5,11.5H200c-0.9,0-1.6,0.2-2.1,0.6c-0.5,0.4-0.8,1-0.8,1.7c0,0.7,0.3,1.2,0.8,1.7
		c0.5,0.4,1.2,0.6,2.1,0.6h2.6v6.8h-2.3c-3.2,0-5.7-0.8-7.7-2.5c-1.9-1.7-2.9-3.9-2.9-6.6c0-2.7,1-4.9,2.9-6.6
		c1.9-1.7,4.5-2.5,7.7-2.5h2.3V11.5z M177,13.8c0,0.6,0.2,1,0.5,1.4c0.4,0.4,0.8,0.6,1.3,0.6c0.5,0,0.9-0.2,1.3-0.6
		c0.4-0.4,0.5-0.9,0.5-1.4c0-0.6-0.2-1.1-0.5-1.4c-0.4-0.4-0.8-0.6-1.3-0.6c-0.5,0-0.9,0.2-1.3,0.6C177.2,12.7,177,13.2,177,13.8z
		 M169.6,13.8c0-1.3,0.2-2.5,0.7-3.6c0.5-1.1,1.1-2.2,2-3.1c0.9-0.9,1.9-1.6,3-2c1.1-0.5,2.3-0.7,3.5-0.7c1.2,0,2.4,0.2,3.5,0.7
		c1.1,0.5,2.1,1.2,2.9,2c0.9,0.9,1.6,1.9,2,3.1c0.5,1.1,0.7,2.3,0.7,3.6c0,1.3-0.2,2.5-0.7,3.6c-0.5,1.1-1.1,2.2-2,3
		c-0.9,0.9-1.9,1.6-3,2c-1.1,0.5-2.3,0.7-3.5,0.7c-1.2,0-2.4-0.2-3.5-0.7c-1.1-0.5-2.1-1.1-3-2c-0.9-0.9-1.6-1.9-2-3.1
		C169.9,16.3,169.6,15.1,169.6,13.8z M149.6,30.5V16.2c0-1.5,0-2.6,0.1-3.4c0.1-0.7,0.2-1.4,0.4-2c0.6-2,1.7-3.5,3.2-4.7
		c1.6-1.1,3.4-1.7,5.4-1.7c1.2,0,2.4,0.2,3.5,0.7c1.1,0.5,2.1,1.2,3,2c0.9,0.9,1.5,1.9,2,3c0.5,1.1,0.7,2.3,0.7,3.6
		c0,2.8-0.9,5.1-2.6,6.8c-1.7,1.7-4,2.6-6.8,2.6c-0.2,0-0.4,0-0.6,0c-0.1,0-0.3,0-0.4,0l0-7.6c0.2,0.1,0.3,0.2,0.5,0.3
		c0.2,0.1,0.4,0.1,0.6,0.1c0.6,0,1-0.2,1.4-0.6c0.4-0.4,0.6-0.9,0.6-1.5c0-0.6-0.2-1.1-0.6-1.5c-0.4-0.4-0.8-0.6-1.4-0.6
		c-0.7,0-1.2,0.2-1.5,0.7c-0.3,0.5-0.5,1.2-0.5,2.3v15.8H149.6z M136.5,13.8c0,0.6,0.2,1,0.5,1.4c0.4,0.4,0.8,0.6,1.3,0.6
		c0.5,0,0.9-0.2,1.3-0.6c0.4-0.4,0.5-0.9,0.5-1.4c0-0.6-0.2-1.1-0.5-1.4c-0.4-0.4-0.8-0.6-1.3-0.6c-0.5,0-0.9,0.2-1.3,0.6
		C136.6,12.7,136.5,13.2,136.5,13.8z M129.1,13.8c0-1.3,0.2-2.5,0.7-3.6c0.5-1.1,1.1-2.2,2-3.1c0.9-0.9,1.9-1.6,3-2
		c1.1-0.5,2.3-0.7,3.5-0.7c1.2,0,2.4,0.2,3.5,0.7c1.1,0.5,2.1,1.2,2.9,2c0.9,0.9,1.6,1.9,2,3.1c0.5,1.1,0.7,2.3,0.7,3.6
		c0,1.3-0.2,2.5-0.7,3.6c-0.5,1.1-1.1,2.2-2,3c-0.9,0.9-1.9,1.6-3,2c-1.1,0.5-2.3,0.7-3.5,0.7c-1.2,0-2.4-0.2-3.5-0.7
		c-1.1-0.5-2.1-1.1-3-2c-0.9-0.9-1.6-1.9-2-3.1C129.3,16.3,129.1,15.1,129.1,13.8z M113.6,22.9v-6.2h4.5c0.3,0,0.5-0.1,0.6-0.2
		c0.1-0.1,0.2-0.3,0.2-0.5c0-0.1,0-0.2-0.1-0.3c-0.1-0.1-0.2-0.2-0.3-0.3l-0.8-0.5c-1.8-1-2.9-1.9-3.4-2.7c-0.5-0.7-0.8-1.6-0.8-2.7
		c0-1.5,0.5-2.7,1.6-3.6c1.1-0.9,2.6-1.3,4.6-1.3h6.9v5.8h-4c-0.2,0-0.4,0.1-0.5,0.2c-0.1,0.1-0.2,0.3-0.2,0.5c0,0.1,0,0.2,0.1,0.3
		c0.1,0.1,0.2,0.2,0.3,0.2l0.7,0.4l0.1,0.1c3,1.8,4.5,3.6,4.5,5.5c0,0.9-0.2,1.7-0.6,2.4c-0.4,0.7-0.9,1.3-1.7,1.8
		c-0.6,0.4-1.2,0.6-1.9,0.8c-0.7,0.2-1.8,0.2-3.3,0.2h-0.4H113.6z M97.9,22.9v-6.2h4.5c0.3,0,0.5-0.1,0.6-0.2
		c0.1-0.1,0.2-0.3,0.2-0.5c0-0.1,0-0.2-0.1-0.3c-0.1-0.1-0.2-0.2-0.3-0.3l-0.8-0.5c-1.8-1-2.9-1.9-3.4-2.7c-0.5-0.7-0.8-1.6-0.8-2.7
		c0-1.5,0.5-2.7,1.6-3.6c1.1-0.9,2.6-1.3,4.6-1.3h6.9v5.8h-4c-0.2,0-0.4,0.1-0.5,0.2c-0.1,0.1-0.2,0.3-0.2,0.5c0,0.1,0,0.2,0.1,0.3
		c0.1,0.1,0.2,0.2,0.3,0.2l0.7,0.4l0.1,0.1c3,1.8,4.5,3.6,4.5,5.5c0,0.9-0.2,1.7-0.6,2.4c-0.4,0.7-0.9,1.3-1.7,1.8
		c-0.6,0.4-1.2,0.6-1.9,0.8c-0.7,0.2-1.8,0.2-3.3,0.2H104H97.9z M88.6,14.7c0-1.1-0.2-1.8-0.5-2.3c-0.3-0.5-0.8-0.7-1.5-0.7
		c-0.5,0-1,0.2-1.4,0.6c-0.4,0.4-0.6,0.9-0.6,1.5c0,0.6,0.2,1.1,0.6,1.5c0.4,0.4,0.8,0.6,1.4,0.6c0.2,0,0.4,0,0.6-0.1
		c0.2-0.1,0.4-0.2,0.5-0.3v7.5c0,0-0.1,0-0.1,0c-0.5,0-0.9,0.1-1.1,0.1c-2.7,0-4.9-0.9-6.6-2.6c-1.7-1.7-2.6-3.9-2.6-6.6
		c0-0.8,0.1-1.7,0.3-2.5c0.2-0.8,0.5-1.6,0.9-2.4c0.8-1.5,1.9-2.6,3.3-3.4c1.4-0.8,2.9-1.2,4.6-1.2c2.1,0,3.9,0.6,5.4,1.7
		c1.6,1.1,2.6,2.7,3.2,4.6c0.2,0.6,0.3,1.3,0.4,2c0.1,0.7,0.1,1.9,0.1,3.4v6.8h-7.2V14.7z"/>
	<path class="st1" d="M202.5,11.5H200c-0.9,0-1.6,0.2-2.1,0.6c-0.5,0.4-0.8,1-0.8,1.7c0,0.7,0.3,1.2,0.8,1.7
		c0.5,0.4,1.2,0.6,2.1,0.6h2.6v6.8h-2.3c-3.2,0-5.7-0.8-7.7-2.5c-1.9-1.7-2.9-3.9-2.9-6.6c0-2.7,1-4.9,2.9-6.6
		c1.9-1.7,4.5-2.5,7.7-2.5h2.3V11.5z M177,13.8c0,0.6,0.2,1,0.5,1.4c0.4,0.4,0.8,0.6,1.3,0.6c0.5,0,0.9-0.2,1.3-0.6
		c0.4-0.4,0.5-0.9,0.5-1.4c0-0.6-0.2-1.1-0.5-1.4c-0.4-0.4-0.8-0.6-1.3-0.6c-0.5,0-0.9,0.2-1.3,0.6C177.2,12.7,177,13.2,177,13.8z
		 M169.6,13.8c0-1.3,0.2-2.5,0.7-3.6c0.5-1.1,1.1-2.2,2-3.1c0.9-0.9,1.9-1.6,3-2c1.1-0.5,2.3-0.7,3.5-0.7c1.2,0,2.4,0.2,3.5,0.7
		c1.1,0.5,2.1,1.2,2.9,2c0.9,0.9,1.6,1.9,2,3.1c0.5,1.1,0.7,2.3,0.7,3.6c0,1.3-0.2,2.5-0.7,3.6c-0.5,1.1-1.1,2.2-2,3
		c-0.9,0.9-1.9,1.6-3,2c-1.1,0.5-2.3,0.7-3.5,0.7c-1.2,0-2.4-0.2-3.5-0.7c-1.1-0.5-2.1-1.2-3-2c-0.9-0.9-1.6-1.9-2-3.1
		C169.9,16.3,169.6,15.1,169.6,13.8z M149.6,30.5V16.2c0-1.5,0-2.6,0.1-3.4c0.1-0.7,0.2-1.4,0.4-2c0.6-2,1.7-3.5,3.2-4.7
		c1.6-1.1,3.4-1.7,5.4-1.7c1.2,0,2.4,0.2,3.5,0.7c1.1,0.5,2.1,1.2,3,2c0.9,0.9,1.5,1.9,2,3c0.5,1.1,0.7,2.3,0.7,3.6
		c0,2.8-0.9,5.1-2.6,6.8c-1.7,1.7-4,2.6-6.8,2.6c-0.2,0-0.4,0-0.6,0c-0.1,0-0.3,0-0.4,0l0-7.6c0.2,0.1,0.3,0.2,0.5,0.3
		c0.2,0.1,0.4,0.1,0.6,0.1c0.6,0,1-0.2,1.4-0.6c0.4-0.4,0.6-0.9,0.6-1.5c0-0.6-0.2-1.1-0.6-1.5c-0.4-0.4-0.8-0.6-1.4-0.6
		c-0.7,0-1.2,0.2-1.5,0.7c-0.3,0.5-0.5,1.2-0.5,2.3v15.8H149.6z M136.5,13.8c0,0.6,0.2,1,0.5,1.4c0.4,0.4,0.8,0.6,1.3,0.6
		c0.5,0,0.9-0.2,1.3-0.6c0.4-0.4,0.5-0.9,0.5-1.4c0-0.6-0.2-1.1-0.5-1.4c-0.4-0.4-0.8-0.6-1.3-0.6c-0.5,0-0.9,0.2-1.3,0.6
		C136.6,12.7,136.5,13.2,136.5,13.8z M129.1,13.8c0-1.3,0.2-2.5,0.7-3.6c0.5-1.1,1.1-2.2,2-3.1c0.9-0.9,1.9-1.6,3-2
		c1.1-0.5,2.3-0.7,3.5-0.7c1.2,0,2.4,0.2,3.5,0.7c1.1,0.5,2.1,1.2,2.9,2c0.9,0.9,1.6,1.9,2,3.1c0.5,1.1,0.7,2.3,0.7,3.6
		c0,1.3-0.2,2.5-0.7,3.6c-0.5,1.1-1.1,2.2-2,3c-0.9,0.9-1.9,1.6-3,2c-1.1,0.5-2.3,0.7-3.5,0.7c-1.2,0-2.4-0.2-3.5-0.7
		c-1.1-0.5-2.1-1.2-3-2c-0.9-0.9-1.6-1.9-2-3.1C129.3,16.3,129.1,15.1,129.1,13.8z M113.6,22.9v-6.2h4.5c0.3,0,0.5-0.1,0.6-0.2
		c0.1-0.1,0.2-0.3,0.2-0.5c0-0.1,0-0.2-0.1-0.3c-0.1-0.1-0.2-0.2-0.3-0.3l-0.8-0.5c-1.8-1-2.9-1.9-3.4-2.7c-0.5-0.7-0.8-1.6-0.8-2.7
		c0-1.5,0.5-2.7,1.6-3.6c1.1-0.9,2.6-1.3,4.6-1.3h6.9v5.8h-4c-0.2,0-0.4,0.1-0.5,0.2c-0.1,0.1-0.2,0.3-0.2,0.5c0,0.1,0,0.2,0.1,0.3
		c0.1,0.1,0.2,0.2,0.3,0.2l0.7,0.4l0.1,0.1c3,1.8,4.5,3.6,4.5,5.5c0,0.9-0.2,1.7-0.6,2.4c-0.4,0.7-0.9,1.3-1.7,1.8
		c-0.6,0.4-1.2,0.6-1.9,0.8c-0.7,0.2-1.8,0.2-3.3,0.2h-0.4H113.6z M97.9,22.9v-6.2h4.5c0.3,0,0.5-0.1,0.6-0.2
		c0.1-0.1,0.2-0.3,0.2-0.5c0-0.1,0-0.2-0.1-0.3c-0.1-0.1-0.2-0.2-0.3-0.3l-0.8-0.5c-1.8-1-2.9-1.9-3.4-2.7c-0.5-0.7-0.8-1.6-0.8-2.7
		c0-1.5,0.5-2.7,1.6-3.6c1.1-0.9,2.6-1.3,4.6-1.3h6.9v5.8h-4c-0.2,0-0.4,0.1-0.5,0.2c-0.1,0.1-0.2,0.3-0.2,0.5c0,0.1,0,0.2,0.1,0.3
		c0.1,0.1,0.2,0.2,0.3,0.2l0.7,0.4l0.1,0.1c3,1.8,4.5,3.6,4.5,5.5c0,0.9-0.2,1.7-0.6,2.4c-0.4,0.7-0.9,1.3-1.7,1.8
		c-0.6,0.4-1.2,0.6-1.9,0.8c-0.7,0.2-1.8,0.2-3.3,0.2H104H97.9z M88.6,14.7c0-1.1-0.2-1.8-0.5-2.3c-0.3-0.5-0.8-0.7-1.5-0.7
		c-0.5,0-1,0.2-1.4,0.6c-0.4,0.4-0.6,0.9-0.6,1.5c0,0.6,0.2,1.1,0.6,1.5c0.4,0.4,0.8,0.6,1.4,0.6c0.2,0,0.4,0,0.6-0.1
		c0.2-0.1,0.4-0.2,0.5-0.3v7.5c0,0-0.1,0-0.1,0c-0.5,0-0.9,0.1-1.1,0.1c-2.7,0-4.9-0.9-6.6-2.6c-1.7-1.7-2.6-3.9-2.6-6.6
		c0-0.8,0.1-1.7,0.3-2.5c0.2-0.8,0.5-1.6,0.9-2.4c0.8-1.5,1.9-2.6,3.3-3.4c1.4-0.8,2.9-1.2,4.6-1.2c2.1,0,3.9,0.6,5.4,1.7
		c1.6,1.1,2.6,2.7,3.2,4.6c0.2,0.6,0.3,1.3,0.4,2c0.1,0.7,0.1,1.9,0.1,3.4v6.8h-7.2V14.7z"/>
	<path d="M77.6,43.7H80l-1.2-3.5L77.6,43.7z M75.4,47l2.9-7.8h1.2l2.8,7.8h-1.2l-0.8-2.3h-3.2L76.4,47H75.4z"/>
	<path d="M87.4,42.9h-0.9c0-0.6-0.4-1-1.3-1c-0.3,0-0.5,0.1-0.8,0.2c-0.3,0.1-0.4,0.3-0.4,0.6c0,0.2,0,0.3,0.1,0.4
		c0.1,0.1,0.2,0.2,0.3,0.2c0.2,0.1,0.4,0.1,0.6,0.2c0.9,0.2,1.5,0.4,1.9,0.6c0.4,0.2,0.6,0.6,0.6,1.1c0,0.6-0.2,1-0.6,1.4
		c-0.4,0.3-1,0.5-1.6,0.5c-1,0-1.6-0.2-1.9-0.6c-0.3-0.4-0.5-0.9-0.5-1.4h0.9c0,0.8,0.5,1.2,1.5,1.2c0.4,0,0.7-0.1,0.9-0.2
		c0.2-0.1,0.4-0.4,0.4-0.7c0-0.2-0.1-0.4-0.2-0.5c-0.2-0.1-0.5-0.2-0.9-0.3c-0.3-0.1-0.6-0.1-0.9-0.2c-0.3-0.1-0.5-0.2-0.8-0.3
		c-0.2-0.1-0.4-0.3-0.6-0.5S83,43.2,83,42.9c0-0.6,0.2-1,0.6-1.3c0.4-0.3,0.9-0.5,1.5-0.5c0.9,0,1.5,0.2,1.8,0.6
		C87.2,42.1,87.4,42.5,87.4,42.9"/>
	<path d="M92.8,42.9h-0.9c0-0.6-0.4-1-1.3-1c-0.3,0-0.5,0.1-0.8,0.2c-0.3,0.1-0.4,0.3-0.4,0.6c0,0.2,0,0.3,0.1,0.4
		c0.1,0.1,0.2,0.2,0.3,0.2c0.2,0.1,0.4,0.1,0.6,0.2c0.9,0.2,1.5,0.4,1.9,0.6c0.4,0.2,0.6,0.6,0.6,1.1c0,0.6-0.2,1-0.6,1.4
		c-0.4,0.3-1,0.5-1.6,0.5c-1,0-1.6-0.2-1.9-0.6c-0.3-0.4-0.5-0.9-0.5-1.4h0.9c0,0.8,0.5,1.2,1.5,1.2c0.4,0,0.7-0.1,0.9-0.2
		c0.2-0.1,0.4-0.4,0.4-0.7c0-0.2-0.1-0.4-0.2-0.5c-0.2-0.1-0.5-0.2-0.9-0.3c-0.3-0.1-0.6-0.1-0.9-0.2c-0.3-0.1-0.5-0.2-0.8-0.3
		c-0.2-0.1-0.4-0.3-0.6-0.5c-0.1-0.2-0.2-0.4-0.2-0.7c0-0.6,0.2-1,0.6-1.3c0.4-0.3,0.9-0.5,1.5-0.5c0.9,0,1.5,0.2,1.8,0.6
		C92.7,42.1,92.8,42.5,92.8,42.9"/>
	<path d="M94.8,44.1c0,0.5,0.1,1,0.4,1.5c0.3,0.5,0.7,0.7,1.3,0.7c0.6,0,1-0.2,1.3-0.7c0.3-0.5,0.4-1,0.4-1.5c0-0.3,0-0.6-0.1-1
		c-0.1-0.3-0.3-0.6-0.5-0.9c-0.3-0.2-0.6-0.4-1-0.4c-0.6,0-1,0.2-1.3,0.7C94.9,43.1,94.8,43.6,94.8,44.1 M93.8,44.1
		c0-0.8,0.2-1.5,0.7-2.1c0.5-0.6,1.1-0.9,2-0.9c0.9,0,1.5,0.3,2,0.9c0.5,0.6,0.7,1.3,0.7,2.1c0,0.8-0.2,1.5-0.7,2.1
		c-0.5,0.6-1.1,0.9-2,0.9c-0.8,0-1.5-0.3-2-0.9C94,45.6,93.8,44.9,93.8,44.1z"/>
	<path d="M99.8,43.6c0.1-0.5,0.2-1,0.4-1.3c0.2-0.4,0.5-0.7,0.9-0.9c0.4-0.2,0.8-0.3,1.3-0.3c0.5,0,1,0.1,1.5,0.4
		c0.5,0.3,0.7,0.9,0.8,1.6h-0.9c-0.1-0.4-0.2-0.8-0.5-0.9c-0.3-0.2-0.6-0.3-0.9-0.2c-0.5,0-0.9,0.2-1.2,0.6c-0.3,0.4-0.4,1-0.4,1.7
		c0,0.7,0.2,1.2,0.5,1.5c0.3,0.3,0.6,0.5,1,0.5c0.3,0,0.7-0.1,0.9-0.4c0.3-0.2,0.4-0.6,0.5-1h0.9c-0.1,0.4-0.2,0.8-0.4,1.2
		c-0.2,0.3-0.5,0.6-0.8,0.7c-0.3,0.2-0.7,0.3-1.2,0.3c-0.6,0-1.1-0.2-1.7-0.6c-0.5-0.4-0.8-1.2-0.8-2.3
		C99.8,43.9,99.8,43.8,99.8,43.6"/>
	<path d="M105.6,41.3h1V47h-1V41.3z M105.6,39.1h1v1.1h-1V39.1z"/>
	<path d="M111.5,44c-0.1,0.1-0.4,0.2-1,0.3c-0.6,0.1-1,0.2-1.4,0.4c-0.3,0.2-0.5,0.4-0.4,0.8c0.1,0.5,0.4,0.8,1,0.9
		c0.4,0,0.8-0.2,1.2-0.4c0.4-0.2,0.6-0.5,0.6-0.9V44z M107.8,45.4c0-0.5,0.2-0.8,0.5-1.2c0.3-0.3,0.8-0.5,1.5-0.6c0.3,0,0.5,0,0.8,0
		c0.3,0,0.5-0.1,0.7-0.2c0.2-0.1,0.3-0.3,0.3-0.5c0-0.6-0.4-1-1.3-1c-0.8,0-1.3,0.4-1.3,1.1H108c0-0.3,0-0.6,0.2-0.9
		c0.2-0.3,0.4-0.5,0.8-0.7c0.4-0.2,0.8-0.3,1.3-0.3c0.6,0,1.2,0.1,1.6,0.4c0.4,0.2,0.6,0.6,0.6,1.1v3.3c0,0.2,0,0.3,0,0.3
		c0,0.1,0.1,0.1,0.2,0.1c0.1,0,0.3,0,0.4-0.1V47c-0.1,0.1-0.3,0.1-0.6,0.1c-0.6,0-0.9-0.3-0.9-0.9c-0.5,0.6-1.2,0.9-2.1,0.9
		c-0.5,0-0.9-0.2-1.3-0.5c-0.3-0.3-0.5-0.7-0.5-1.1C107.7,45.5,107.8,45.5,107.8,45.4z"/>
	<path d="M115.8,47.1c-0.6-0.1-1.1-0.4-1.5-0.9c-0.4-0.5-0.6-1.1-0.6-1.9c0-0.9,0.2-1.7,0.7-2.3c0.5-0.6,1.1-0.9,2.1-0.9
		c0.7,0,1.2,0.2,1.5,0.6c0.3,0.4,0.5,0.9,0.6,1.5h-0.9c-0.1-0.8-0.6-1.2-1.4-1.2c-0.5,0-0.9,0.2-1.2,0.6c-0.3,0.4-0.4,0.9-0.4,1.5
		c0,1.5,0.5,2.2,1.6,2.2c0.3,0,0.6-0.1,0.9-0.4c0.3-0.2,0.4-0.6,0.5-1h0.9c-0.1,0.6-0.3,1.1-0.7,1.5c-0.4,0.4-0.9,0.7-1.7,0.7
		l-0.4,0.5c0.2,0,0.3,0,0.3,0c0.3,0,0.6,0.1,0.7,0.2c0.1,0.2,0.2,0.4,0.2,0.6c0,0.3-0.1,0.5-0.3,0.7c-0.2,0.2-0.5,0.3-0.9,0.3
		c-0.3,0-0.7-0.1-1-0.3l0.2-0.4c0.3,0.1,0.5,0.2,0.7,0.2c0.4,0,0.6-0.2,0.6-0.5c0-0.2-0.1-0.3-0.2-0.3c-0.1-0.1-0.2-0.1-0.3-0.1
		c-0.1,0-0.2,0-0.4,0.1l-0.2-0.2L115.8,47.1z"/>
	<path d="M123.3,39.1h0.5c0,0.3-0.2,0.6-0.3,0.9c-0.2,0.2-0.4,0.3-0.7,0.3c-0.2,0-0.4-0.1-0.8-0.2c-0.3-0.1-0.6-0.2-0.8-0.2
		c-0.2,0-0.4,0.2-0.5,0.5h-0.5c0.1-0.8,0.5-1.2,1.1-1.2c0.2,0,0.5,0.1,0.8,0.2c0.3,0.1,0.6,0.2,0.7,0.2
		C123,39.6,123.2,39.4,123.3,39.1 M123.1,44c-0.1,0.1-0.4,0.2-1,0.3c-0.6,0.1-1,0.2-1.4,0.4c-0.3,0.2-0.5,0.4-0.4,0.8
		c0.1,0.5,0.4,0.8,1,0.9c0.4,0,0.8-0.2,1.2-0.4c0.4-0.2,0.6-0.5,0.6-0.9V44z M119.3,45.4c0-0.5,0.2-0.8,0.5-1.2
		c0.3-0.3,0.8-0.5,1.5-0.6c0.3,0,0.5,0,0.8,0c0.3,0,0.5-0.1,0.7-0.2c0.2-0.1,0.3-0.3,0.3-0.5c0-0.6-0.4-1-1.3-1
		c-0.8,0-1.3,0.4-1.3,1.1h-0.9c0-0.3,0-0.6,0.2-0.9c0.2-0.3,0.4-0.5,0.8-0.7c0.4-0.2,0.8-0.3,1.3-0.3c0.6,0,1.2,0.1,1.6,0.4
		c0.4,0.2,0.6,0.6,0.6,1.1v3.3c0,0.2,0,0.3,0,0.3c0,0.1,0.1,0.1,0.2,0.1c0.1,0,0.3,0,0.4-0.1V47c-0.1,0.1-0.3,0.1-0.6,0.1
		c-0.6,0-0.9-0.3-0.9-0.9c-0.5,0.6-1.2,0.9-2.1,0.9c-0.5,0-0.9-0.2-1.3-0.5c-0.3-0.3-0.5-0.7-0.5-1.1
		C119.3,45.5,119.3,45.5,119.3,45.4z"/>
	<path d="M126.3,44.1c0,0.5,0.1,1,0.4,1.5c0.3,0.5,0.7,0.7,1.3,0.7c0.6,0,1-0.2,1.3-0.7c0.3-0.5,0.4-1,0.4-1.5c0-0.3,0-0.6-0.1-1
		c-0.1-0.3-0.3-0.6-0.5-0.9c-0.3-0.2-0.6-0.4-1-0.4c-0.6,0-1,0.2-1.3,0.7C126.5,43.1,126.3,43.6,126.3,44.1 M125.4,44.1
		c0-0.8,0.2-1.5,0.7-2.1c0.5-0.6,1.1-0.9,2-0.9c0.9,0,1.5,0.3,2,0.9c0.5,0.6,0.7,1.3,0.7,2.1c0,0.8-0.2,1.5-0.7,2.1
		c-0.5,0.6-1.1,0.9-2,0.9c-0.8,0-1.5-0.3-2-0.9C125.6,45.6,125.4,44.9,125.4,44.1z"/>
	<path d="M135.4,44.1c0,0.7,0.1,1.2,0.4,1.6c0.3,0.4,0.6,0.6,1.1,0.6c0.4,0,0.8-0.1,1.1-0.4c0.3-0.3,0.5-0.8,0.5-1.5
		c0-1.6-0.5-2.4-1.5-2.4C136,42,135.4,42.7,135.4,44.1 M139.5,39.1V47h-0.9v-0.8c-0.2,0.4-0.5,0.6-0.8,0.8c-0.4,0.1-0.6,0.2-0.8,0.2
		c-0.9,0-1.5-0.3-1.9-1c-0.4-0.6-0.6-1.4-0.6-2.2c0-0.8,0.2-1.5,0.6-2c0.4-0.5,1-0.8,1.7-0.8c0.5,0,0.8,0.1,1.1,0.3
		c0.2,0.2,0.5,0.4,0.6,0.7v-2.9H139.5z"/>
	<path d="M141.5,44.1c0,0.5,0.1,1,0.4,1.5c0.3,0.5,0.7,0.7,1.3,0.7c0.6,0,1-0.2,1.3-0.7c0.3-0.5,0.4-1,0.4-1.5c0-0.3,0-0.6-0.1-1
		c-0.1-0.3-0.3-0.6-0.5-0.9c-0.3-0.2-0.6-0.4-1-0.4c-0.6,0-1,0.2-1.3,0.7C141.7,43.1,141.5,43.6,141.5,44.1 M140.5,44.1
		c0-0.8,0.2-1.5,0.7-2.1c0.5-0.6,1.1-0.9,2-0.9c0.9,0,1.5,0.3,2,0.9c0.5,0.6,0.7,1.3,0.7,2.1c0,0.8-0.2,1.5-0.7,2.1
		c-0.5,0.6-1.1,0.9-2,0.9c-0.8,0-1.5-0.3-2-0.9C140.8,45.6,140.5,44.9,140.5,44.1z"/>
	<path d="M151.1,42.9h-0.9c0-0.6-0.4-1-1.3-1c-0.3,0-0.5,0.1-0.8,0.2c-0.3,0.1-0.4,0.3-0.4,0.6c0,0.2,0,0.3,0.1,0.4
		c0.1,0.1,0.2,0.2,0.3,0.2c0.2,0.1,0.4,0.1,0.6,0.2c0.9,0.2,1.5,0.4,1.9,0.6c0.4,0.2,0.6,0.6,0.6,1.1c0,0.6-0.2,1-0.6,1.4
		c-0.4,0.3-1,0.5-1.6,0.5c-1,0-1.6-0.2-1.9-0.6c-0.3-0.4-0.5-0.9-0.5-1.4h0.9c0,0.8,0.5,1.2,1.5,1.2c0.4,0,0.7-0.1,0.9-0.2
		c0.2-0.1,0.4-0.4,0.4-0.7c0-0.2-0.1-0.4-0.2-0.5c-0.2-0.1-0.5-0.2-0.9-0.3c-0.3-0.1-0.6-0.1-0.9-0.2c-0.3-0.1-0.5-0.2-0.8-0.3
		c-0.2-0.1-0.4-0.3-0.6-0.5c-0.1-0.2-0.2-0.4-0.2-0.7c0-0.6,0.2-1,0.6-1.3c0.4-0.3,0.9-0.5,1.5-0.5c0.9,0,1.5,0.2,1.8,0.6
		C151,42.1,151.1,42.5,151.1,42.9"/>
	<path d="M156.7,43.7V47h-1v-7.8h3.5c0.5,0,0.9,0.1,1.2,0.3c0.4,0.2,0.6,0.5,0.8,0.8c0.2,0.3,0.3,0.7,0.3,1.1c0,0.6-0.2,1.2-0.6,1.6
		c-0.4,0.5-1,0.7-1.8,0.7H156.7z M156.7,40v2.7h2.1c1.1,0,1.6-0.5,1.6-1.4c0-0.9-0.5-1.3-1.5-1.3H156.7z"/>
	<path d="M162.8,47v-5.7h0.9v1c0.2-0.4,0.5-0.7,0.8-0.9c0.3-0.2,0.6-0.3,1.1-0.2v1c-0.5,0-0.9,0.1-1.3,0.3c-0.4,0.3-0.5,0.6-0.5,1.1
		V47H162.8z"/>
	<path d="M167,44.1c0,0.5,0.1,1,0.4,1.5c0.3,0.5,0.7,0.7,1.3,0.7c0.6,0,1-0.2,1.3-0.7c0.3-0.5,0.4-1,0.4-1.5c0-0.3,0-0.6-0.1-1
		c-0.1-0.3-0.3-0.6-0.5-0.9c-0.3-0.2-0.6-0.4-1-0.4c-0.6,0-1,0.2-1.3,0.7C167.1,43.1,167,43.6,167,44.1 M166,44.1
		c0-0.8,0.2-1.5,0.7-2.1c0.5-0.6,1.1-0.9,2-0.9c0.9,0,1.5,0.3,2,0.9c0.5,0.6,0.7,1.3,0.7,2.1c0,0.8-0.2,1.5-0.7,2.1
		c-0.5,0.6-1.1,0.9-2,0.9c-0.8,0-1.5-0.3-2-0.9C166.2,45.6,166,44.9,166,44.1z"/>
	<path d="M172.6,46.3v-4.1h-0.8v-0.9h0.8v-1.6h1v1.6h0.9v0.9h-0.9v3.6c0,0.2,0.1,0.3,0.1,0.4c0.1,0.1,0.2,0.1,0.3,0.1
		c0.2,0,0.4,0,0.5,0v0.9c-0.3,0-0.6,0-0.7,0c-0.4,0-0.6-0.1-0.8-0.2C172.7,46.8,172.6,46.6,172.6,46.3"/>
	<path d="M176.2,43.7h3.2c0-0.5-0.2-0.9-0.4-1.2c-0.3-0.3-0.6-0.5-1.2-0.5c-0.4,0-0.8,0.2-1.1,0.5C176.3,42.8,176.2,43.2,176.2,43.7
		 M179.3,45.2h1c0,0.2-0.1,0.5-0.3,0.8c-0.2,0.3-0.4,0.6-0.7,0.8c-0.4,0.3-0.9,0.4-1.6,0.4c-0.9,0-1.6-0.3-2-1
		c-0.4-0.5-0.5-1.1-0.5-1.9c0-1.1,0.3-1.9,0.9-2.5c0.3-0.3,0.5-0.5,0.9-0.6c0.3-0.1,0.6-0.2,1-0.2c0.4,0,0.8,0.1,1.2,0.3
		c0.4,0.2,0.7,0.5,0.9,0.9c0.3,0.6,0.4,1.3,0.4,2.2h-4.2c0,1.2,0.6,1.9,1.7,1.9c0.4,0,0.8-0.1,1-0.4
		C179.2,45.7,179.3,45.4,179.3,45.2z"/>
	<path d="M181.7,46.3v-4.1h-0.8v-0.9h0.8v-1.6h1v1.6h0.9v0.9h-0.9v3.6c0,0.2,0.1,0.3,0.1,0.4c0.1,0.1,0.2,0.1,0.3,0.1
		c0.2,0,0.4,0,0.5,0v0.9c-0.3,0-0.6,0-0.7,0c-0.4,0-0.6-0.1-0.8-0.2C181.8,46.8,181.7,46.6,181.7,46.3"/>
	<path d="M185.2,44.1c0,0.5,0.1,1,0.4,1.5c0.3,0.5,0.7,0.7,1.3,0.7c0.6,0,1-0.2,1.3-0.7c0.3-0.5,0.4-1,0.4-1.5c0-0.3,0-0.6-0.1-1
		c-0.1-0.3-0.3-0.6-0.5-0.9c-0.3-0.2-0.6-0.4-1-0.4c-0.6,0-1,0.2-1.3,0.7C185.3,43.1,185.2,43.6,185.2,44.1 M184.2,44.1
		c0-0.8,0.2-1.5,0.7-2.1c0.5-0.6,1.1-0.9,2-0.9c0.9,0,1.5,0.3,2,0.9c0.5,0.6,0.7,1.3,0.7,2.1c0,0.8-0.2,1.5-0.7,2.1
		c-0.5,0.6-1.1,0.9-2,0.9c-0.8,0-1.5-0.3-2-0.9C184.4,45.6,184.2,44.9,184.2,44.1z"/>
	<path d="M190.7,47v-5.7h0.9v1c0.2-0.4,0.5-0.7,0.8-0.9c0.3-0.2,0.6-0.3,1.1-0.2v1c-0.5,0-0.9,0.1-1.3,0.3c-0.4,0.3-0.5,0.6-0.5,1.1
		V47H190.7z"/>
	<path d="M195,43.7h3.2c0-0.5-0.2-0.9-0.4-1.2c-0.3-0.3-0.6-0.5-1.2-0.5c-0.4,0-0.8,0.2-1.1,0.5C195.1,42.8,195,43.2,195,43.7
		 M198.1,45.2h1c0,0.2-0.1,0.5-0.3,0.8c-0.2,0.3-0.4,0.6-0.7,0.8c-0.4,0.3-0.9,0.4-1.6,0.4c-0.9,0-1.6-0.3-2-1
		c-0.4-0.5-0.5-1.1-0.5-1.9c0-1.1,0.3-1.9,0.9-2.5c0.3-0.3,0.5-0.5,0.9-0.6c0.3-0.1,0.6-0.2,1-0.2c0.4,0,0.8,0.1,1.2,0.3
		c0.4,0.2,0.7,0.5,0.9,0.9c0.3,0.6,0.4,1.3,0.4,2.2H195c0,1.2,0.6,1.9,1.7,1.9c0.4,0,0.8-0.1,1-0.4C198,45.7,198.1,45.4,198.1,45.2z
		"/>
	<path d="M204.5,42.9h-0.9c0-0.6-0.4-1-1.3-1c-0.3,0-0.5,0.1-0.8,0.2c-0.3,0.1-0.4,0.3-0.4,0.6c0,0.2,0,0.3,0.1,0.4
		c0.1,0.1,0.2,0.2,0.3,0.2c0.2,0.1,0.4,0.1,0.6,0.2c0.9,0.2,1.5,0.4,1.9,0.6c0.4,0.2,0.6,0.6,0.6,1.1c0,0.6-0.2,1-0.6,1.4
		c-0.4,0.3-1,0.5-1.6,0.5c-1,0-1.6-0.2-1.9-0.6c-0.3-0.4-0.5-0.9-0.5-1.4h0.9c0,0.8,0.5,1.2,1.5,1.2c0.4,0,0.7-0.1,0.9-0.2
		c0.2-0.1,0.4-0.4,0.4-0.7c0-0.2-0.1-0.4-0.2-0.5c-0.2-0.1-0.5-0.2-0.9-0.3c-0.3-0.1-0.6-0.1-0.9-0.2c-0.3-0.1-0.5-0.2-0.8-0.3
		c-0.2-0.1-0.4-0.3-0.6-0.5c-0.1-0.2-0.2-0.4-0.2-0.7c0-0.6,0.2-1,0.6-1.3c0.4-0.3,0.9-0.5,1.5-0.5c0.9,0,1.5,0.2,1.8,0.6
		C204.3,42.1,204.5,42.5,204.5,42.9"/>
	<path d="M86.6,55.7c0,0.7,0.1,1.2,0.4,1.6c0.3,0.4,0.6,0.6,1.1,0.6c0.4,0,0.8-0.1,1.1-0.4c0.3-0.3,0.5-0.8,0.5-1.5
		c0-1.6-0.5-2.4-1.5-2.4C87.1,53.6,86.6,54.3,86.6,55.7 M90.6,50.8v7.8h-0.9v-0.8c-0.2,0.4-0.5,0.6-0.8,0.8
		c-0.4,0.1-0.6,0.2-0.8,0.2c-0.9,0-1.5-0.3-1.9-1c-0.4-0.6-0.6-1.4-0.6-2.2c0-0.8,0.2-1.5,0.6-2c0.4-0.5,1-0.8,1.7-0.8
		c0.5,0,0.8,0.1,1.1,0.3c0.2,0.2,0.5,0.4,0.6,0.7v-2.9H90.6z"/>
	<path d="M95.5,55.7c-0.1,0.1-0.4,0.2-1,0.3s-1,0.2-1.4,0.4c-0.3,0.2-0.5,0.4-0.4,0.8c0.1,0.5,0.4,0.8,1,0.9c0.4,0,0.8-0.2,1.2-0.4
		c0.4-0.2,0.6-0.5,0.6-0.9V55.7z M91.7,57.1c0-0.5,0.2-0.8,0.5-1.2c0.3-0.3,0.8-0.5,1.5-0.6c0.3,0,0.5,0,0.8,0
		c0.3,0,0.5-0.1,0.7-0.2c0.2-0.1,0.3-0.3,0.3-0.5c0-0.6-0.4-1-1.3-1c-0.8,0-1.3,0.4-1.3,1.1H92c0-0.3,0-0.6,0.2-0.9
		c0.2-0.3,0.4-0.5,0.8-0.7c0.4-0.2,0.8-0.3,1.3-0.3c0.6,0,1.2,0.1,1.6,0.4c0.4,0.2,0.6,0.6,0.6,1.1v3.3c0,0.2,0,0.3,0,0.3
		c0,0.1,0.1,0.1,0.2,0.1c0.1,0,0.3,0,0.4-0.1v0.7c-0.1,0.1-0.3,0.1-0.6,0.1c-0.6,0-0.9-0.3-0.9-0.9c-0.5,0.6-1.2,0.9-2.1,0.9
		c-0.5,0-0.9-0.2-1.3-0.5c-0.3-0.3-0.5-0.7-0.5-1.1C91.7,57.1,91.7,57.1,91.7,57.1z"/>
	<path d="M102.2,54.5h-0.9c0-0.6-0.4-1-1.3-1c-0.3,0-0.5,0.1-0.8,0.2c-0.3,0.1-0.4,0.3-0.4,0.6c0,0.2,0,0.3,0.1,0.4
		c0.1,0.1,0.2,0.2,0.3,0.2c0.2,0.1,0.4,0.1,0.6,0.2c0.9,0.2,1.5,0.4,1.9,0.6c0.4,0.2,0.6,0.6,0.6,1.1c0,0.6-0.2,1-0.6,1.4
		c-0.4,0.3-1,0.5-1.6,0.5c-1,0-1.6-0.2-1.9-0.6c-0.3-0.4-0.5-0.9-0.5-1.4h0.9c0,0.8,0.5,1.2,1.5,1.2c0.4,0,0.7-0.1,0.9-0.2
		c0.2-0.1,0.4-0.4,0.4-0.7c0-0.2-0.1-0.4-0.2-0.5c-0.2-0.1-0.5-0.2-0.9-0.3c-0.3-0.1-0.6-0.1-0.9-0.2c-0.3-0.1-0.5-0.2-0.8-0.3
		c-0.2-0.1-0.4-0.3-0.6-0.5c-0.1-0.2-0.2-0.4-0.2-0.7c0-0.6,0.2-1,0.6-1.3c0.4-0.3,0.9-0.5,1.5-0.5c0.9,0,1.5,0.2,1.8,0.6
		C102.1,53.8,102.2,54.2,102.2,54.5"/>
	<path d="M107.8,55.3v3.3h-1v-7.8h3.5c0.5,0,0.9,0.1,1.2,0.3c0.4,0.2,0.6,0.5,0.8,0.8c0.2,0.3,0.3,0.7,0.3,1.1
		c0,0.6-0.2,1.2-0.6,1.6c-0.4,0.5-1,0.7-1.8,0.7H107.8z M107.8,51.7v2.7h2.1c1.1,0,1.6-0.5,1.6-1.4c0-0.9-0.5-1.3-1.5-1.3H107.8z"/>
	<path d="M114.6,55.3h3.2c0-0.5-0.2-0.9-0.4-1.2c-0.3-0.3-0.6-0.5-1.2-0.5c-0.4,0-0.8,0.2-1.1,0.5C114.7,54.5,114.6,54.9,114.6,55.3
		 M117.7,56.8h1c0,0.2-0.1,0.5-0.3,0.8c-0.2,0.3-0.4,0.6-0.7,0.8c-0.4,0.3-0.9,0.4-1.6,0.4c-0.9,0-1.6-0.3-2-1
		c-0.4-0.5-0.5-1.1-0.5-1.9c0-1.1,0.3-1.9,0.9-2.5c0.3-0.3,0.5-0.5,0.9-0.6c0.3-0.1,0.6-0.2,1-0.2c0.4,0,0.8,0.1,1.2,0.3
		c0.4,0.2,0.7,0.5,0.9,0.9c0.3,0.6,0.4,1.3,0.4,2.2h-4.2c0,1.2,0.6,1.9,1.7,1.9c0.4,0,0.8-0.1,1-0.4
		C117.6,57.3,117.7,57.1,117.7,56.8z"/>
	<path d="M124.1,54.5h-0.9c0-0.6-0.4-1-1.3-1c-0.3,0-0.5,0.1-0.8,0.2c-0.3,0.1-0.4,0.3-0.4,0.6c0,0.2,0,0.3,0.1,0.4
		c0.1,0.1,0.2,0.2,0.3,0.2c0.2,0.1,0.4,0.1,0.6,0.2c0.9,0.2,1.5,0.4,1.9,0.6c0.4,0.2,0.6,0.6,0.6,1.1c0,0.6-0.2,1-0.6,1.4
		c-0.4,0.3-1,0.5-1.6,0.5c-1,0-1.6-0.2-1.9-0.6c-0.3-0.4-0.5-0.9-0.5-1.4h0.9c0,0.8,0.5,1.2,1.5,1.2c0.4,0,0.7-0.1,0.9-0.2
		c0.2-0.1,0.4-0.4,0.4-0.7c0-0.2-0.1-0.4-0.2-0.5c-0.2-0.1-0.5-0.2-0.9-0.3c-0.3-0.1-0.6-0.1-0.9-0.2c-0.3-0.1-0.5-0.2-0.8-0.3
		c-0.2-0.1-0.4-0.3-0.6-0.5c-0.1-0.2-0.2-0.4-0.2-0.7c0-0.6,0.2-1,0.6-1.3c0.4-0.3,0.9-0.5,1.5-0.5c0.9,0,1.5,0.2,1.8,0.6
		C123.9,53.8,124.1,54.2,124.1,54.5"/>
	<path d="M129.5,54.5h-0.9c0-0.6-0.4-1-1.3-1c-0.3,0-0.5,0.1-0.8,0.2c-0.3,0.1-0.4,0.3-0.4,0.6c0,0.2,0,0.3,0.1,0.4
		c0.1,0.1,0.2,0.2,0.3,0.2c0.2,0.1,0.4,0.1,0.6,0.2c0.9,0.2,1.5,0.4,1.9,0.6c0.4,0.2,0.6,0.6,0.6,1.1c0,0.6-0.2,1-0.6,1.4
		c-0.4,0.3-1,0.5-1.6,0.5c-1,0-1.6-0.2-1.9-0.6c-0.3-0.4-0.5-0.9-0.5-1.4h0.9c0,0.8,0.5,1.2,1.5,1.2c0.4,0,0.7-0.1,0.9-0.2
		c0.2-0.1,0.4-0.4,0.4-0.7c0-0.2-0.1-0.4-0.2-0.5c-0.2-0.1-0.5-0.2-0.9-0.3c-0.3-0.1-0.6-0.1-0.9-0.2c-0.3-0.1-0.5-0.2-0.8-0.3
		c-0.2-0.1-0.4-0.3-0.6-0.5c-0.1-0.2-0.2-0.4-0.2-0.7c0-0.6,0.2-1,0.6-1.3c0.4-0.3,0.9-0.5,1.5-0.5c0.9,0,1.5,0.2,1.8,0.6
		C129.4,53.8,129.5,54.2,129.5,54.5"/>
	<path d="M131.5,55.7c0,0.5,0.1,1,0.4,1.5c0.3,0.5,0.7,0.7,1.3,0.7c0.6,0,1-0.2,1.3-0.7c0.3-0.5,0.4-1,0.4-1.5c0-0.3,0-0.6-0.1-1
		c-0.1-0.3-0.3-0.6-0.5-0.9c-0.3-0.2-0.6-0.4-1-0.4c-0.6,0-1,0.2-1.3,0.7C131.6,54.7,131.5,55.2,131.5,55.7 M130.5,55.7
		c0-0.8,0.2-1.5,0.7-2.1c0.5-0.6,1.1-0.9,2-0.9c0.9,0,1.5,0.3,2,0.9c0.5,0.6,0.7,1.3,0.7,2.1c0,0.8-0.2,1.5-0.7,2.1
		c-0.5,0.6-1.1,0.9-2,0.9c-0.8,0-1.5-0.3-2-0.9C130.7,57.3,130.5,56.6,130.5,55.7z"/>
	<path d="M140.4,55.7c-0.1,0.1-0.4,0.2-1,0.3c-0.6,0.1-1,0.2-1.4,0.4c-0.3,0.2-0.5,0.4-0.4,0.8c0.1,0.5,0.4,0.8,1,0.9
		c0.4,0,0.8-0.2,1.2-0.4c0.4-0.2,0.6-0.5,0.6-0.9V55.7z M136.6,57.1c0-0.5,0.2-0.8,0.5-1.2c0.3-0.3,0.8-0.5,1.5-0.6
		c0.3,0,0.5,0,0.8,0c0.3,0,0.5-0.1,0.7-0.2c0.2-0.1,0.3-0.3,0.3-0.5c0-0.6-0.4-1-1.3-1c-0.8,0-1.3,0.4-1.3,1.1h-0.9
		c0-0.3,0-0.6,0.2-0.9c0.2-0.3,0.4-0.5,0.8-0.7c0.4-0.2,0.8-0.3,1.3-0.3c0.6,0,1.2,0.1,1.6,0.4c0.4,0.2,0.6,0.6,0.6,1.1v3.3
		c0,0.2,0,0.3,0,0.3c0,0.1,0.1,0.1,0.2,0.1c0.1,0,0.3,0,0.4-0.1v0.7c-0.1,0.1-0.3,0.1-0.6,0.1c-0.6,0-0.9-0.3-0.9-0.9
		c-0.5,0.6-1.2,0.9-2.1,0.9c-0.5,0-0.9-0.2-1.3-0.5c-0.3-0.3-0.5-0.7-0.5-1.1C136.6,57.1,136.6,57.1,136.6,57.1z"/>
	<path d="M147.2,54.5h-0.9c0-0.6-0.4-1-1.3-1c-0.3,0-0.5,0.1-0.8,0.2c-0.3,0.1-0.4,0.3-0.4,0.6c0,0.2,0,0.3,0.1,0.4
		c0.1,0.1,0.2,0.2,0.3,0.2c0.2,0.1,0.4,0.1,0.6,0.2c0.9,0.2,1.5,0.4,1.9,0.6c0.4,0.2,0.6,0.6,0.6,1.1c0,0.6-0.2,1-0.6,1.4
		c-0.4,0.3-1,0.5-1.6,0.5c-1,0-1.6-0.2-1.9-0.6c-0.3-0.4-0.5-0.9-0.5-1.4h0.9c0,0.8,0.5,1.2,1.5,1.2c0.4,0,0.7-0.1,0.9-0.2
		s0.4-0.4,0.4-0.7c0-0.2-0.1-0.4-0.2-0.5c-0.2-0.1-0.5-0.2-0.9-0.3c-0.3-0.1-0.6-0.1-0.9-0.2c-0.3-0.1-0.5-0.2-0.8-0.3
		c-0.2-0.1-0.4-0.3-0.6-0.5c-0.1-0.2-0.2-0.4-0.2-0.7c0-0.6,0.2-1,0.6-1.3c0.4-0.3,0.9-0.5,1.5-0.5c0.9,0,1.5,0.2,1.8,0.6
		C147,53.8,147.2,54.2,147.2,54.5"/>
	<path d="M151.2,54.7c0-0.5,0-1,0.1-1.4c0.1-0.5,0.3-0.9,0.6-1.3c0.3-0.4,0.7-0.7,1.1-1c0.5-0.3,1-0.4,1.7-0.4c0.4,0,0.8,0,1.3,0.2
		c0.5,0.1,0.9,0.4,1.3,0.8c0.4,0.4,0.6,0.9,0.7,1.6h-1c-0.1-0.5-0.4-1-0.8-1.2c-0.4-0.3-0.8-0.4-1.4-0.4c-0.1,0-0.1,0-0.3,0
		c-0.1,0-0.2,0-0.3,0c-0.4,0.1-0.8,0.2-1.1,0.5c-0.3,0.3-0.5,0.6-0.7,1.1c-0.2,0.4-0.2,0.9-0.2,1.5c0,1.1,0.2,1.9,0.7,2.5
		c0.5,0.5,1,0.8,1.7,0.8c0,0,0,0,0.1,0c0,0,0,0,0,0c0.7,0,1.2-0.2,1.6-0.6c0.4-0.4,0.6-0.9,0.7-1.6h1c-0.1,0.9-0.5,1.6-1.1,2.2
		c-0.6,0.6-1.4,0.9-2.3,0.9c-0.8,0-1.5-0.1-2-0.5c-0.5-0.4-0.9-0.8-1.2-1.5C151.4,56.2,151.3,55.5,151.2,54.7"/>
	<path d="M162.8,55.7c-0.1,0.1-0.4,0.2-1,0.3s-1,0.2-1.4,0.4c-0.3,0.2-0.5,0.4-0.4,0.8c0.1,0.5,0.4,0.8,1,0.9c0.4,0,0.8-0.2,1.2-0.4
		c0.4-0.2,0.6-0.5,0.6-0.9V55.7z M159,57.1c0-0.5,0.2-0.8,0.5-1.2c0.3-0.3,0.8-0.5,1.5-0.6c0.3,0,0.5,0,0.8,0c0.3,0,0.5-0.1,0.7-0.2
		c0.2-0.1,0.3-0.3,0.3-0.5c0-0.6-0.4-1-1.3-1c-0.8,0-1.3,0.4-1.3,1.1h-0.9c0-0.3,0-0.6,0.2-0.9c0.2-0.3,0.4-0.5,0.8-0.7
		c0.4-0.2,0.8-0.3,1.3-0.3c0.6,0,1.2,0.1,1.6,0.4c0.4,0.2,0.6,0.6,0.6,1.1v3.3c0,0.2,0,0.3,0,0.3c0,0.1,0.1,0.1,0.2,0.1
		c0.1,0,0.3,0,0.4-0.1v0.7c-0.1,0.1-0.3,0.1-0.6,0.1c-0.6,0-0.9-0.3-0.9-0.9c-0.5,0.6-1.2,0.9-2.1,0.9c-0.5,0-0.9-0.2-1.3-0.5
		c-0.3-0.3-0.5-0.7-0.5-1.1C159,57.1,159,57.1,159,57.1z"/>
	<path d="M165.6,58.6v-5.7h0.9v1c0.2-0.4,0.5-0.7,0.8-0.9c0.3-0.2,0.6-0.3,1.1-0.2v1c-0.5,0-0.9,0.1-1.3,0.3
		c-0.4,0.3-0.5,0.6-0.5,1.1v3.4H165.6z"/>
	<path d="M169.8,55.3h3.2c0-0.5-0.2-0.9-0.4-1.2c-0.3-0.3-0.6-0.5-1.2-0.5c-0.4,0-0.8,0.2-1.1,0.5C170,54.5,169.8,54.9,169.8,55.3
		 M172.9,56.8h1c0,0.2-0.1,0.5-0.3,0.8c-0.2,0.3-0.4,0.6-0.7,0.8c-0.4,0.3-0.9,0.4-1.6,0.4c-0.9,0-1.6-0.3-2-1
		c-0.4-0.5-0.5-1.1-0.5-1.9c0-1.1,0.3-1.9,0.9-2.5c0.3-0.3,0.5-0.5,0.9-0.6c0.3-0.1,0.6-0.2,1-0.2c0.4,0,0.8,0.1,1.2,0.3
		c0.4,0.2,0.7,0.5,0.9,0.9c0.3,0.6,0.4,1.3,0.4,2.2h-4.2c0,1.2,0.6,1.9,1.7,1.9c0.4,0,0.8-0.1,1-0.4
		C172.8,57.3,172.9,57.1,172.9,56.8z"/>
	<path d="M175.1,58.6v-5.7h0.9v0.8c0.1-0.2,0.3-0.4,0.6-0.6c0.3-0.2,0.7-0.4,1.2-0.3c0.6,0,1.1,0.2,1.4,0.5c0.3,0.3,0.5,0.8,0.5,1.5
		v3.9h-1v-3.5c0-0.5-0.1-0.8-0.2-1.1c-0.2-0.3-0.5-0.4-0.9-0.4c-0.5,0-0.9,0.2-1.2,0.5c-0.3,0.3-0.4,0.7-0.4,1.3v3.3H175.1z"/>
	<path d="M181.4,57.9v-4.1h-0.8v-0.9h0.8v-1.6h1v1.6h0.9v0.9h-0.9v3.6c0,0.2,0.1,0.3,0.1,0.4c0.1,0.1,0.2,0.1,0.3,0.1
		c0.2,0,0.4,0,0.5,0v0.9c-0.3,0-0.6,0-0.7,0c-0.4,0-0.6-0.1-0.8-0.2C181.5,58.5,181.4,58.2,181.4,57.9"/>
	<path d="M185,55.3h3.2c0-0.5-0.2-0.9-0.4-1.2c-0.3-0.3-0.6-0.5-1.2-0.5c-0.4,0-0.8,0.2-1.1,0.5C185.1,54.5,185,54.9,185,55.3
		 M188.1,56.8h1c0,0.2-0.1,0.5-0.3,0.8c-0.2,0.3-0.4,0.6-0.7,0.8c-0.4,0.3-0.9,0.4-1.6,0.4c-0.9,0-1.6-0.3-2-1
		c-0.4-0.5-0.5-1.1-0.5-1.9c0-1.1,0.3-1.9,0.9-2.5c0.3-0.3,0.5-0.5,0.9-0.6c0.3-0.1,0.6-0.2,1-0.2c0.4,0,0.8,0.1,1.2,0.3
		c0.4,0.2,0.7,0.5,0.9,0.9c0.3,0.6,0.4,1.3,0.4,2.2H185c0,1.2,0.6,1.9,1.7,1.9c0.4,0,0.8-0.1,1-0.4
		C187.9,57.3,188.1,57.1,188.1,56.8z"/>
	<path d="M194.5,54.5h-0.9c0-0.6-0.4-1-1.3-1c-0.3,0-0.5,0.1-0.8,0.2c-0.3,0.1-0.4,0.3-0.4,0.6c0,0.2,0,0.3,0.1,0.4
		c0.1,0.1,0.2,0.2,0.3,0.2c0.2,0.1,0.4,0.1,0.6,0.2c0.9,0.2,1.5,0.4,1.9,0.6c0.4,0.2,0.6,0.6,0.6,1.1c0,0.6-0.2,1-0.6,1.4
		c-0.4,0.3-1,0.5-1.6,0.5c-1,0-1.6-0.2-1.9-0.6c-0.3-0.4-0.5-0.9-0.5-1.4h0.9c0,0.8,0.5,1.2,1.5,1.2c0.4,0,0.7-0.1,0.9-0.2
		c0.2-0.1,0.4-0.4,0.4-0.7c0-0.2-0.1-0.4-0.2-0.5c-0.2-0.1-0.5-0.2-0.9-0.3c-0.3-0.1-0.6-0.1-0.9-0.2c-0.3-0.1-0.5-0.2-0.8-0.3
		c-0.2-0.1-0.4-0.3-0.6-0.5c-0.1-0.2-0.2-0.4-0.2-0.7c0-0.6,0.2-1,0.6-1.3c0.4-0.3,0.9-0.5,1.5-0.5c0.9,0,1.5,0.2,1.8,0.6
		C194.3,53.8,194.5,54.2,194.5,54.5"/>
</g>
</svg>
