<?xml version="1.0" encoding="UTF-8"?>
<svg xmlns="http://www.w3.org/2000/svg" id="Layer_2" data-name="Layer 2" viewBox="0 0 180.29 143.76">
  <defs>
    <style>
      .cls-1 {
        fill: #f99d1c;
      }

      .cls-1, .cls-2, .cls-3, .cls-4, .cls-5 {
        stroke-width: 0px;
      }

      .cls-2 {
        fill: #ffc20e;
      }

      .cls-3 {
        fill: #fff;
      }

      .cls-4 {
        fill: #1268b3;
      }

      .cls-5 {
        fill: #fd0;
      }
    </style>
  </defs>
  <g id="Layer_1-2" data-name="Layer 1">
    <g>
      <path class="cls-1" d="M68.25,37.19c-8.67,3.49-18.18,10.83-27.12,19.24,11.8-.59,24.14,3.47,32.93,2.86,9.72-.68,19.14-5.99,28.31-12.21-9.71-8.64-19.64-15.71-34.11-9.89ZM76.39,32.25c5.28-3.16,6.9-9.98,2.43-13.49-3.81-3-9.4-1.1-12.19,2.8-2.2,3.07-2.3,6.95-.48,9.42,2.01,2.71,6.31,3.62,10.23,1.27Z"></path>
      <path class="cls-5" d="M25.37,61.25C10.11,71.46,0,102.86,0,102.86l5.04-4.92c.21-.38,16.85-23.43,36.08-41.51-5.51.27-10.9,1.56-15.75,4.81ZM27.31,56.1c2.48,1.09,5.83,0,7.63-3.19,2.41-4.3.83-9.69-3.67-10.35-3.85-.57-6.98,2.98-7.37,6.8-.31,3.01,1.16,5.76,3.42,6.74Z"></path>
      <path class="cls-2" d="M116.44,56.5c-6.4-3.16-10.77-6.54-12.79-8.26-.43-.39-.86-.78-1.29-1.16h0c-9.18,6.22-18.59,11.53-28.31,12.21-8.78.61-21.13-3.45-32.93-2.86C21.89,74.51,5.25,97.56,5.04,97.94c.19-.19,20.3-20.06,45.27-30.03.01,0,.02,0,.03-.01,7.31-2.97,14.87-5.31,24.67-6.39,15.41-1.7,35.49.09,53.97,3.95,6.71,1.4,31.18,7.93,40.33,6.87-13.95.08-37.84-8.41-52.87-15.82Z"></path>
      <g>
        <path class="cls-4" d="M151.12,20.11c5.8-4.76,6.89-13.09,1.66-17.66-5.02-4.39-12.87-2.58-17.06,3.02-3.63,4.84-3.41,11.14.16,14.76,3.68,3.73,10.27,3.95,15.24-.12Z"></path>
        <path class="cls-4" d="M142.99,25.5c-13.18.48-26.63,12.09-40.63,21.58.41.37.83.74,1.24,1.11.02.02.03.03.05.05,2.02,1.72,6.4,5.11,12.79,8.26,15.03,7.42,38.91,15.9,52.86,15.82,5.43-.45,9.85-2.48,10.67-7.73,3.09-19.8-17.36-39.81-36.99-39.09Z"></path>
      </g>
      <path class="cls-3" d="M85.24,128.78h-.02c-3.16,0-4.73,1.89-4.73,5.66,0,1.07.15,1.98.44,2.73.29.75.69,1.31,1.19,1.68.5.36,1.02.63,1.55.78.53.16,1.11.24,1.74.24h.06c1.39,0,2.64-.23,3.75-.7v-1.79c-1.02.54-2.26.81-3.71.81-1.78,0-2.79-.92-3.02-2.76h7.41c.04-.47.06-.96.06-1.47,0-1.57-.43-2.83-1.29-3.77-.86-.94-2-1.41-3.44-1.41ZM82.46,133.66c.09-1.15.35-1.95.77-2.42s1.09-.7,1.99-.7c.5,0,.94.1,1.3.3.36.2.64.47.83.8.19.34.34.67.43.99.09.33.16.67.18,1.02h-5.51Z"></path>
      <path class="cls-3" d="M73.76,139.67h1.96v-8.64c1.11-.29,2.2-.44,3.26-.45v-1.81c-1.69,0-3.44.36-5.23,1.07v9.83Z"></path>
      <rect class="cls-3" x="70.03" y="83.47" width="4.08" height="4.08"></rect>
      <path class="cls-3" d="M69.97,130.31c-.33-.39-.72-.71-1.17-.96-.45-.24-.87-.4-1.25-.47-.38-.07-.77-.1-1.17-.1-.78,0-1.46.1-2.04.29-.59.19-1.03.42-1.32.69-.29.27-.53.57-.7.92-.17.35-.28.64-.32.87-.04.23-.06.46-.06.69v11.53h1.96v-4.23c.73.21,1.49.31,2.28.31.64,0,1.22-.08,1.75-.24.53-.16,1.05-.42,1.56-.78.51-.36.91-.92,1.2-1.67.29-.75.44-1.66.44-2.72,0-.93-.11-1.75-.33-2.46s-.49-1.26-.82-1.65ZM68.93,136.35c-.16.51-.39.88-.69,1.12-.3.24-.61.4-.92.48-.31.08-.69.13-1.13.13-.78,0-1.54-.14-2.28-.43v-5.54c0-1.07.83-1.61,2.48-1.61.37,0,.7.05.99.14.29.09.58.26.87.51.29.25.52.65.68,1.2.16.55.24,1.24.24,2.07,0,.78-.08,1.42-.24,1.93Z"></path>
      <rect class="cls-3" x="70.23" y="92.03" width="3.68" height="25.44"></rect>
      <path class="cls-3" d="M54.55,128.75c-1.27,0-2.58.27-3.93.81-.75-.54-1.71-.81-2.87-.81-1.54,0-3.02.36-4.46,1.07v9.85h1.96v-8.72c.8-.22,1.58-.33,2.35-.33.99,0,1.65.18,1.98.55.33.36.5.86.5,1.49v7.01h1.96v-6.96c0-.57-.08-1.08-.25-1.53.97-.4,1.93-.6,2.88-.6.88,0,1.47.19,1.77.57.3.38.45.87.45,1.49v7.03h1.96v-6.9c0-1.27-.38-2.25-1.14-2.96-.76-.71-1.82-1.06-3.17-1.06Z"></path>
      <path class="cls-3" d="M35.94,128.78h-.02c-3.16,0-4.73,1.89-4.73,5.66,0,1.07.15,1.98.44,2.73.29.75.69,1.31,1.19,1.68.5.36,1.02.63,1.55.78.53.16,1.11.24,1.74.24h.06c1.39,0,2.64-.23,3.75-.7v-1.79c-1.02.54-2.26.81-3.71.81-1.78,0-2.79-.92-3.02-2.76h7.41c.04-.47.06-.96.06-1.47,0-1.57-.43-2.83-1.29-3.77-.86-.94-2-1.41-3.44-1.41ZM33.16,133.66c.09-1.15.35-1.95.77-2.42.42-.47,1.09-.7,1.99-.7.5,0,.94.1,1.3.3.36.2.64.47.83.8.19.34.34.67.43.99.09.33.16.67.18,1.02h-5.51Z"></path>
      <rect class="cls-3" x="58.28" y="82.35" width="3.68" height="35.12"></rect>
      <path class="cls-3" d="M32.72,115.65c.76.56,1.66,1.02,2.7,1.37,1.04.36,1.97.59,2.79.69.82.1,1.62.15,2.4.15,1.01,0,2.03-.1,3.07-.3,1.04-.2,2.15-.56,3.33-1.07,1.18-.51,2.15-1.35,2.91-2.5.75-1.15,1.13-2.54,1.13-4.17v-7.64c0-3.47-.94-6.1-2.81-7.9s-4.59-2.7-8.15-2.7c-2.59,0-5.13.44-7.64,1.32v3.56c2.21-.81,4.68-1.22,7.44-1.22,2.45,0,4.3.49,5.55,1.48,1.25.99,1.88,2.63,1.88,4.94l-4.08-.24c-.58,0-1.08,0-1.51.02-.42.02-1.14.07-2.14.17-1,.1-1.87.24-2.6.43-.73.19-1.57.48-2.51.88-.95.4-1.73.88-2.34,1.45-.61.56-1.13,1.3-1.56,2.2-.42.91-.63,1.93-.63,3.07,0,1.37.27,2.57.81,3.61.54,1.04,1.19,1.84,1.96,2.4ZM42.86,104.62c1.89,0,3.4.1,4.52.3v4.88c0,3.07-2.25,4.61-6.76,4.61h-.07c-4.6,0-6.91-1.58-6.91-4.75,0-3.35,3.07-5.03,9.22-5.03Z"></path>
      <path class="cls-3" d="M159.17,129.84c-.52-.38-1.05-.65-1.6-.81s-1.14-.24-1.79-.24-1.24.08-1.79.24c-.55.16-1.08.43-1.6.81-.52.38-.93.95-1.23,1.71-.3.76-.45,1.68-.45,2.77s.15,2.01.45,2.77c.3.76.71,1.33,1.23,1.71.52.38,1.05.65,1.6.8.54.16,1.14.24,1.79.24s1.24-.08,1.79-.24c.54-.16,1.08-.43,1.6-.8.52-.38.93-.95,1.23-1.71.3-.76.45-1.68.45-2.77s-.15-2.01-.45-2.77c-.3-.76-.71-1.33-1.23-1.71ZM158.62,136.3c-.16.52-.39.9-.71,1.15-.31.25-.63.42-.95.5s-.71.13-1.17.13-.85-.04-1.17-.13-.64-.25-.95-.5c-.31-.25-.55-.64-.71-1.15-.16-.52-.24-1.18-.24-1.98s.08-1.46.24-1.98c.16-.52.39-.9.71-1.15.31-.25.63-.42.95-.5.32-.08.71-.13,1.17-.13s.85.04,1.17.13c.32.08.64.25.95.5.31.25.55.63.71,1.15.16.52.24,1.18.24,1.98s-.08,1.46-.24,1.98Z"></path>
      <path class="cls-3" d="M154.63,116.49v-3.56c-2.21.98-4.59,1.47-7.14,1.47-3.02,0-5.22-.76-6.6-2.28-1.38-1.52-2.07-4-2.07-7.42s.69-5.83,2.07-7.36c1.38-1.53,3.58-2.3,6.6-2.3,2.44,0,4.82.47,7.14,1.42v-3.46c-2.47-.95-4.99-1.42-7.54-1.42-1.53,0-2.93.19-4.21.56-1.28.37-2.53,1.01-3.75,1.9-1.22.9-2.19,2.25-2.91,4.07-.72,1.82-1.08,4.02-1.08,6.61,0,2.44.32,4.53.95,6.28.63,1.75,1.51,3.09,2.61,4.03,1.11.94,2.25,1.63,3.44,2.07,1.19.44,2.49.69,3.92.76h.32s0,4.26,0,4.26h1.96v-4.3h.68c1.83-.21,3.69-.65,5.6-1.33Z"></path>
      <path class="cls-3" d="M97.28,116.49c1.19-.51,2.16-1.35,2.91-2.5.75-1.15,1.13-2.54,1.13-4.17v-7.64c0-3.47-.94-6.1-2.81-7.9-1.87-1.8-4.59-2.7-8.15-2.7-2.59,0-5.13.44-7.64,1.32v3.56c2.21-.81,4.69-1.22,7.44-1.22,2.45,0,4.3.49,5.55,1.48,1.25.99,1.88,2.63,1.88,4.94l-4.08-.24c-.58,0-1.08,0-1.51.02-.42.02-1.14.07-2.14.17-1,.1-1.87.24-2.6.43-.73.19-1.57.48-2.51.88-.95.4-1.73.88-2.34,1.45-.61.56-1.13,1.3-1.56,2.2-.42.91-.63,1.93-.63,3.07,0,1.37.27,2.57.81,3.61.54,1.04,1.19,1.84,1.96,2.4.76.56,1.67,1.02,2.7,1.37,1.04.36,1.97.59,2.79.69.82.1,1.62.15,2.4.15,1.01,0,2.03-.1,3.07-.3s2.15-.56,3.33-1.07ZM90.8,114.4c-4.61,0-6.91-1.58-6.91-4.75,0-3.35,3.07-5.03,9.22-5.03,1.89,0,3.4.1,4.52.3v4.88c0,3.07-2.25,4.61-6.76,4.61h-.07Z"></path>
      <path class="cls-3" d="M177.48,94.28c-1.87-1.8-4.59-2.7-8.15-2.7-2.59,0-5.13.44-7.64,1.32v3.56c2.21-.81,4.69-1.22,7.44-1.22,2.45,0,4.3.49,5.55,1.48,1.25.99,1.88,2.63,1.88,4.94l-4.08-.24c-.58,0-1.08,0-1.51.02-.42.02-1.14.07-2.14.17-1,.1-1.87.24-2.6.43-.73.19-1.57.48-2.51.88-.95.4-1.73.88-2.34,1.45-.61.56-1.13,1.3-1.56,2.2-.42.91-.63,1.93-.63,3.07,0,1.37.27,2.57.81,3.61.54,1.04,1.19,1.84,1.96,2.4.76.56,1.66,1.02,2.7,1.37,1.04.36,1.97.59,2.79.69.82.1,1.62.15,2.4.15,1.01,0,2.03-.1,3.07-.3,1.04-.2,2.15-.56,3.33-1.07s2.15-1.35,2.91-2.5c.75-1.15,1.13-2.54,1.13-4.17v-7.64c0-3.47-.94-6.1-2.81-7.9ZM176.61,109.8c0,3.07-2.25,4.61-6.76,4.61h-.07c-4.6,0-6.91-1.58-6.91-4.75,0-3.35,3.07-5.03,9.22-5.03,1.89,0,3.4.1,4.52.3v4.88Z"></path>
      <path class="cls-3" d="M146.39,129.09c-.75-.21-1.52-.32-2.29-.32-.62,0-1.19.08-1.72.23-.53.15-1.05.41-1.56.78-.51.37-.91.93-1.2,1.67s-.44,1.65-.44,2.71c0,.94.11,1.77.34,2.48.22.71.5,1.26.82,1.65.32.39.71.71,1.16.96.45.25.87.4,1.25.47.38.07.78.1,1.19.1.77,0,1.44-.1,2.02-.29.58-.19,1.02-.42,1.31-.69.29-.27.53-.58.7-.93s.28-.65.32-.88c.05-.23.07-.46.07-.69v-11.49h-1.96v4.21ZM146.39,136.48c0,1.07-.81,1.6-2.46,1.6-.39,0-.73-.04-1.02-.14-.29-.09-.58-.26-.87-.51-.29-.25-.52-.65-.68-1.2-.16-.55-.24-1.23-.24-2.06,0-.77.08-1.41.24-1.92s.39-.88.69-1.11c.3-.24.61-.4.93-.48.32-.08.69-.13,1.12-.13.8,0,1.57.15,2.29.45v5.49Z"></path>
      <path class="cls-3" d="M174.38,128.78c-1.15,0-2.23.19-3.24.58v1.68c1.05-.36,2.04-.54,2.97-.54,1.03,0,1.77.2,2.22.59.45.39.7,1.04.74,1.94-.63-.08-1.28-.13-1.95-.13-1.58,0-2.81.3-3.71.89-.9.6-1.34,1.43-1.34,2.49,0,.23.02.47.06.71.04.24.15.54.33.91.18.37.42.68.72.95.3.27.75.5,1.35.7.6.2,1.29.3,2.08.3s1.45-.1,2.04-.29c.59-.19,1.03-.42,1.33-.69.3-.27.53-.58.7-.93.17-.36.28-.65.33-.88.05-.23.07-.46.07-.69v-3.1c0-1.45-.41-2.56-1.22-3.33-.81-.77-1.97-1.16-3.47-1.16ZM177.06,136.33c0,1.16-.81,1.74-2.43,1.74h-.03c-1.72,0-2.58-.61-2.58-1.82,0-.35.12-.66.36-.92.24-.26.54-.44.9-.55.36-.11.7-.19,1.02-.25.31-.05.61-.08.9-.08.73,0,1.35.05,1.86.14v1.73Z"></path>
      <path class="cls-3" d="M163.43,139.67h1.96v-8.64c1.11-.29,2.2-.44,3.26-.45v-1.81c-1.69,0-3.44.36-5.23,1.07v9.83Z"></path>
      <path class="cls-3" d="M108.92,128.75c-1.56,0-3.08.37-4.57,1.1v9.82h1.96v-8.72c.81-.26,1.65-.39,2.52-.39.97,0,1.62.18,1.95.55.32.36.48.86.48,1.49v7.07h2v-6.92c0-1.25-.39-2.23-1.16-2.94-.77-.71-1.84-1.06-3.19-1.06Z"></path>
      <path class="cls-3" d="M132.34,128.78h-.02c-3.16,0-4.73,1.89-4.73,5.66,0,1.07.15,1.98.44,2.73.29.75.69,1.31,1.19,1.68.5.36,1.02.63,1.55.78.53.16,1.11.24,1.74.24h.06c1.39,0,2.64-.23,3.75-.7v-1.79c-1.02.54-2.26.81-3.71.81-1.78,0-2.79-.92-3.02-2.76h7.41c.04-.47.06-.96.06-1.47,0-1.57-.43-2.83-1.29-3.77-.86-.94-2-1.41-3.44-1.41ZM129.56,133.66c.09-1.15.35-1.95.77-2.42s1.09-.7,1.99-.7c.5,0,.94.1,1.3.3.36.2.64.47.83.8.19.34.34.67.43.99.09.33.16.67.18,1.02h-5.51Z"></path>
      <path class="cls-3" d="M97.04,128.78h-.02c-3.16,0-4.73,1.89-4.73,5.66,0,1.07.15,1.98.44,2.73.29.75.69,1.31,1.19,1.68.5.36,1.02.63,1.55.78.53.16,1.11.24,1.74.24h.06c1.39,0,2.64-.23,3.75-.7v-1.79c-1.02.54-2.26.81-3.71.81-1.78,0-2.79-.92-3.02-2.76h7.41c.04-.47.06-.96.06-1.47,0-1.57-.43-2.83-1.29-3.77-.86-.94-2-1.41-3.44-1.41ZM94.25,133.66c.09-1.15.35-1.95.77-2.42.42-.47,1.09-.7,1.99-.7.5,0,.94.1,1.3.3.36.2.64.47.83.8.19.34.34.67.43.99.09.33.16.67.18,1.02h-5.51Z"></path>
      <path class="cls-3" d="M129.14,117.47v-16.58c0-2.95-.88-5.24-2.65-6.87-1.76-1.63-4.25-2.44-7.45-2.44-3.84,0-7.42.83-10.76,2.49v23.4h3.68v-21.21c2.32-.68,4.55-1.02,6.68-1.02,1.46,0,2.67.17,3.63.51.96.34,1.66.83,2.09,1.46.43.63.72,1.22.87,1.78.15.56.22,1.19.22,1.9v16.58h3.68Z"></path>
      <path class="cls-3" d="M123.16,129.09c-.75-.21-1.52-.32-2.29-.32-.62,0-1.19.08-1.72.23-.53.15-1.05.41-1.56.78-.51.37-.91.93-1.2,1.67s-.44,1.65-.44,2.71c0,.94.11,1.77.34,2.48.22.71.5,1.26.82,1.65.32.39.71.71,1.16.96.45.25.87.4,1.25.47.38.07.78.1,1.19.1.77,0,1.44-.1,2.02-.29.58-.19,1.02-.42,1.31-.69.29-.27.53-.58.7-.93s.28-.65.32-.88c.05-.23.07-.46.07-.69v-11.49h-1.96v4.21ZM123.16,136.48c0,1.07-.81,1.6-2.46,1.6-.39,0-.73-.04-1.02-.14-.29-.09-.58-.26-.87-.51-.29-.25-.52-.65-.68-1.2-.16-.55-.24-1.23-.24-2.06,0-.77.08-1.41.24-1.92s.39-.88.69-1.11c.3-.24.61-.4.93-.48.32-.08.69-.13,1.12-.13.8,0,1.57.15,2.29.45v5.49Z"></path>
    </g>
  </g>
</svg>
